<mxfile host="app.diagrams.net" modified="2021-07-13T17:28:30.392Z" agent="5.0 (X11)" etag="kq5E7TAM3Txxzq4QTEQr" compressed="false" version="14.8.6" type="github">
  <diagram name="Page-1" id="2a216829-ef6e-dabb-86c1-c78162f3ba2b">
    <mxGraphModel dx="1054" dy="698" grid="1" gridSize="10" guides="1" tooltips="1" connect="1" arrows="1" fold="1" page="1" pageScale="1" pageWidth="1654" pageHeight="1169" background="none" math="0" shadow="0">
      <root>
        <mxCell id="0" />
        <mxCell id="1" parent="0" />
        <mxCell id="lL50LF5EUAc4o-qxcwu0-5" value="Processo 1" style="swimlane;horizontal=0;rounded=1;" parent="1" vertex="1">
          <mxGeometry x="10" y="10" width="1150" height="330" as="geometry" />
        </mxCell>
        <mxCell id="lL50LF5EUAc4o-qxcwu0-22" value="GRE 4" style="points=[[0.25,0,0],[0.5,0,0],[0.75,0,0],[1,0.25,0],[1,0.5,0],[1,0.75,0],[0.75,1,0],[0.5,1,0],[0.25,1,0],[0,0.75,0],[0,0.5,0],[0,0.25,0]];rounded=1;arcSize=10;dashed=1;strokeColor=#000000;fillColor=none;gradientColor=none;dashPattern=8 3 1 3;strokeWidth=2;shadow=0;glass=0;labelPosition=center;verticalLabelPosition=bottom;align=center;verticalAlign=top;" parent="lL50LF5EUAc4o-qxcwu0-5" vertex="1">
          <mxGeometry x="610" y="50" width="200" height="240" as="geometry" />
        </mxCell>
        <mxCell id="lL50LF5EUAc4o-qxcwu0-20" value="GRE 1 e GRE 2" style="points=[[0.25,0,0],[0.5,0,0],[0.75,0,0],[1,0.25,0],[1,0.5,0],[1,0.75,0],[0.75,1,0],[0.5,1,0],[0.25,1,0],[0,0.75,0],[0,0.5,0],[0,0.25,0]];rounded=1;arcSize=10;dashed=1;strokeColor=#000000;fillColor=none;gradientColor=none;dashPattern=8 3 1 3;strokeWidth=2;shadow=0;glass=0;labelPosition=center;verticalLabelPosition=bottom;align=center;verticalAlign=top;" parent="lL50LF5EUAc4o-qxcwu0-5" vertex="1">
          <mxGeometry x="170" y="50" width="200" height="240" as="geometry" />
        </mxCell>
        <mxCell id="lL50LF5EUAc4o-qxcwu0-21" value="GRE 3" style="points=[[0.25,0,0],[0.5,0,0],[0.75,0,0],[1,0.25,0],[1,0.5,0],[1,0.75,0],[0.75,1,0],[0.5,1,0],[0.25,1,0],[0,0.75,0],[0,0.5,0],[0,0.25,0]];rounded=1;arcSize=10;dashed=1;strokeColor=#000000;fillColor=none;gradientColor=none;dashPattern=8 3 1 3;strokeWidth=2;shadow=0;glass=0;labelPosition=center;verticalLabelPosition=bottom;align=center;verticalAlign=top;" parent="lL50LF5EUAc4o-qxcwu0-5" vertex="1">
          <mxGeometry x="390" y="50" width="200" height="240" as="geometry" />
        </mxCell>
        <mxCell id="lL50LF5EUAc4o-qxcwu0-23" value="GRE 5" style="points=[[0.25,0,0],[0.5,0,0],[0.75,0,0],[1,0.25,0],[1,0.5,0],[1,0.75,0],[0.75,1,0],[0.5,1,0],[0.25,1,0],[0,0.75,0],[0,0.5,0],[0,0.25,0]];rounded=1;arcSize=10;dashed=1;strokeColor=#000000;fillColor=none;gradientColor=none;dashPattern=8 3 1 3;strokeWidth=2;shadow=0;glass=0;labelPosition=center;verticalLabelPosition=bottom;align=center;verticalAlign=top;" parent="lL50LF5EUAc4o-qxcwu0-5" vertex="1">
          <mxGeometry x="830" y="50" width="200" height="240" as="geometry" />
        </mxCell>
        <mxCell id="lL50LF5EUAc4o-qxcwu0-26" style="edgeStyle=orthogonalEdgeStyle;rounded=0;orthogonalLoop=1;jettySize=auto;html=1;exitX=1;exitY=0.5;exitDx=0;exitDy=0;exitPerimeter=0;entryX=0;entryY=0.5;entryDx=0;entryDy=0;entryPerimeter=0;" parent="lL50LF5EUAc4o-qxcwu0-5" source="lL50LF5EUAc4o-qxcwu0-12" target="lL50LF5EUAc4o-qxcwu0-13" edge="1">
          <mxGeometry relative="1" as="geometry" />
        </mxCell>
        <mxCell id="lL50LF5EUAc4o-qxcwu0-12" value="Obter requisitos" style="points=[[0.25,0,0],[0.5,0,0],[0.75,0,0],[1,0.25,0],[1,0.5,0],[1,0.75,0],[0.75,1,0],[0.5,1,0],[0.25,1,0],[0,0.75,0],[0,0.5,0],[0,0.25,0]];shape=mxgraph.bpmn.task;whiteSpace=wrap;rectStyle=rounded;size=10;taskMarker=abstract;isLoopSub=1;rounded=1;labelPosition=center;verticalLabelPosition=bottom;align=center;verticalAlign=top;" parent="lL50LF5EUAc4o-qxcwu0-5" vertex="1">
          <mxGeometry x="210" y="80" width="120" height="80" as="geometry" />
        </mxCell>
        <mxCell id="lL50LF5EUAc4o-qxcwu0-27" style="edgeStyle=orthogonalEdgeStyle;rounded=0;orthogonalLoop=1;jettySize=auto;html=1;exitX=1;exitY=0.5;exitDx=0;exitDy=0;exitPerimeter=0;entryX=0;entryY=0.5;entryDx=0;entryDy=0;entryPerimeter=0;" parent="lL50LF5EUAc4o-qxcwu0-5" source="lL50LF5EUAc4o-qxcwu0-13" target="lL50LF5EUAc4o-qxcwu0-14" edge="1">
          <mxGeometry relative="1" as="geometry" />
        </mxCell>
        <mxCell id="lL50LF5EUAc4o-qxcwu0-13" value="Estabelecer e manter&#xa;rastreabilidade bidirecional entre&#xa;os requsitos e os produtos de&#xa;trabalho" style="points=[[0.25,0,0],[0.5,0,0],[0.75,0,0],[1,0.25,0],[1,0.5,0],[1,0.75,0],[0.75,1,0],[0.5,1,0],[0.25,1,0],[0,0.75,0],[0,0.5,0],[0,0.25,0]];shape=mxgraph.bpmn.task;whiteSpace=wrap;rectStyle=rounded;size=10;taskMarker=abstract;isLoopSub=1;rounded=1;labelPosition=center;verticalLabelPosition=bottom;align=center;verticalAlign=top;" parent="lL50LF5EUAc4o-qxcwu0-5" vertex="1">
          <mxGeometry x="430" y="80" width="120" height="80" as="geometry" />
        </mxCell>
        <mxCell id="lL50LF5EUAc4o-qxcwu0-28" style="edgeStyle=orthogonalEdgeStyle;rounded=0;orthogonalLoop=1;jettySize=auto;html=1;exitX=1;exitY=0.5;exitDx=0;exitDy=0;exitPerimeter=0;" parent="lL50LF5EUAc4o-qxcwu0-5" source="lL50LF5EUAc4o-qxcwu0-14" target="lL50LF5EUAc4o-qxcwu0-15" edge="1">
          <mxGeometry relative="1" as="geometry" />
        </mxCell>
        <mxCell id="lL50LF5EUAc4o-qxcwu0-14" value="Corrigir inconsistências em&#xa;relação aos requisitos&#xa;" style="points=[[0.25,0,0],[0.5,0,0],[0.75,0,0],[1,0.25,0],[1,0.5,0],[1,0.75,0],[0.75,1,0],[0.5,1,0],[0.25,1,0],[0,0.75,0],[0,0.5,0],[0,0.25,0]];shape=mxgraph.bpmn.task;whiteSpace=wrap;rectStyle=rounded;size=10;taskMarker=abstract;isLoopSub=1;rounded=1;labelPosition=center;verticalLabelPosition=bottom;align=center;verticalAlign=top;" parent="lL50LF5EUAc4o-qxcwu0-5" vertex="1">
          <mxGeometry x="650" y="80" width="120" height="80" as="geometry" />
        </mxCell>
        <mxCell id="lL50LF5EUAc4o-qxcwu0-29" style="edgeStyle=orthogonalEdgeStyle;rounded=0;orthogonalLoop=1;jettySize=auto;html=1;exitX=1;exitY=0.5;exitDx=0;exitDy=0;exitPerimeter=0;entryX=0;entryY=0.5;entryDx=0;entryDy=0;entryPerimeter=0;" parent="lL50LF5EUAc4o-qxcwu0-5" source="lL50LF5EUAc4o-qxcwu0-15" target="lL50LF5EUAc4o-qxcwu0-17" edge="1">
          <mxGeometry relative="1" as="geometry" />
        </mxCell>
        <mxCell id="lL50LF5EUAc4o-qxcwu0-15" value="Gerenciar mudanças nosrequisitos" style="points=[[0.25,0,0],[0.5,0,0],[0.75,0,0],[1,0.25,0],[1,0.5,0],[1,0.75,0],[0.75,1,0],[0.5,1,0],[0.25,1,0],[0,0.75,0],[0,0.5,0],[0,0.25,0]];shape=mxgraph.bpmn.task;whiteSpace=wrap;rectStyle=rounded;size=10;taskMarker=abstract;isLoopSub=1;rounded=1;labelPosition=center;verticalLabelPosition=bottom;align=center;verticalAlign=top;" parent="lL50LF5EUAc4o-qxcwu0-5" vertex="1">
          <mxGeometry x="870" y="80" width="120" height="80" as="geometry" />
        </mxCell>
        <mxCell id="lL50LF5EUAc4o-qxcwu0-25" style="edgeStyle=orthogonalEdgeStyle;rounded=0;orthogonalLoop=1;jettySize=auto;html=1;exitX=1;exitY=0.5;exitDx=0;exitDy=0;exitPerimeter=0;entryX=0;entryY=0.5;entryDx=0;entryDy=0;entryPerimeter=0;" parent="lL50LF5EUAc4o-qxcwu0-5" source="lL50LF5EUAc4o-qxcwu0-16" target="lL50LF5EUAc4o-qxcwu0-12" edge="1">
          <mxGeometry relative="1" as="geometry" />
        </mxCell>
        <mxCell id="lL50LF5EUAc4o-qxcwu0-16" value="" style="points=[[0.145,0.145,0],[0.5,0,0],[0.855,0.145,0],[1,0.5,0],[0.855,0.855,0],[0.5,1,0],[0.145,0.855,0],[0,0.5,0]];shape=mxgraph.bpmn.event;html=1;verticalLabelPosition=bottom;labelBackgroundColor=#ffffff;verticalAlign=top;align=center;perimeter=ellipsePerimeter;outlineConnect=0;aspect=fixed;outline=standard;symbol=general;rounded=1;" parent="lL50LF5EUAc4o-qxcwu0-5" vertex="1">
          <mxGeometry x="80" y="95" width="50" height="50" as="geometry" />
        </mxCell>
        <mxCell id="lL50LF5EUAc4o-qxcwu0-17" value="" style="points=[[0.145,0.145,0],[0.5,0,0],[0.855,0.145,0],[1,0.5,0],[0.855,0.855,0],[0.5,1,0],[0.145,0.855,0],[0,0.5,0]];shape=mxgraph.bpmn.event;html=1;verticalLabelPosition=bottom;labelBackgroundColor=#ffffff;verticalAlign=top;align=center;perimeter=ellipsePerimeter;outlineConnect=0;aspect=fixed;outline=end;symbol=terminate2;rounded=1;" parent="lL50LF5EUAc4o-qxcwu0-5" vertex="1">
          <mxGeometry x="1070" y="95" width="50" height="50" as="geometry" />
        </mxCell>
        <mxCell id="o7J0vp0uQSlqZqwxGxeL-1" value="&lt;div&gt;Equipe Técnica&lt;/div&gt;" style="text;html=1;resizable=0;autosize=1;align=center;verticalAlign=middle;points=[];fillColor=none;strokeColor=none;rounded=0;shadow=0;glass=0;rotation=270;strokeWidth=1;fontStyle=1" parent="lL50LF5EUAc4o-qxcwu0-5" vertex="1">
          <mxGeometry x="-10" y="155" width="100" height="20" as="geometry" />
        </mxCell>
        <mxCell id="o7J0vp0uQSlqZqwxGxeL-50" value="GRE" style="swimlane;horizontal=0;rounded=1;swimlaneLine=1;" parent="1" vertex="1">
          <mxGeometry x="10" y="420" width="1590" height="710" as="geometry">
            <mxRectangle x="50" y="440" width="30" height="90" as="alternateBounds" />
          </mxGeometry>
        </mxCell>
        <mxCell id="zMS48Avbv7I0cEuDU5D0-61" value="GRE 1" style="points=[[0.25,0,0],[0.5,0,0],[0.75,0,0],[1,0.25,0],[1,0.5,0],[1,0.75,0],[0.75,1,0],[0.5,1,0],[0.25,1,0],[0,0.75,0],[0,0.5,0],[0,0.25,0]];rounded=1;arcSize=10;dashed=1;strokeColor=#000000;fillColor=none;gradientColor=none;dashPattern=8 3 1 3;strokeWidth=2;labelPosition=center;verticalLabelPosition=bottom;align=center;verticalAlign=top;" vertex="1" parent="o7J0vp0uQSlqZqwxGxeL-50">
          <mxGeometry x="120" y="-10" width="1230" height="680" as="geometry" />
        </mxCell>
        <mxCell id="zMS48Avbv7I0cEuDU5D0-62" value="GRE 2" style="points=[[0.25,0,0],[0.5,0,0],[0.75,0,0],[1,0.25,0],[1,0.5,0],[1,0.75,0],[0.75,1,0],[0.5,1,0],[0.25,1,0],[0,0.75,0],[0,0.5,0],[0,0.25,0]];rounded=1;arcSize=10;dashed=1;strokeColor=#000000;fillColor=none;gradientColor=none;dashPattern=8 3 1 3;strokeWidth=2;labelPosition=center;verticalLabelPosition=bottom;align=center;verticalAlign=top;" vertex="1" parent="o7J0vp0uQSlqZqwxGxeL-50">
          <mxGeometry x="1360" y="-10" width="220" height="680" as="geometry" />
        </mxCell>
        <mxCell id="o7J0vp0uQSlqZqwxGxeL-73" value="&lt;div&gt;Equipe Técnica&lt;/div&gt;" style="text;html=1;resizable=0;autosize=1;align=center;verticalAlign=middle;points=[];fillColor=none;strokeColor=none;rounded=0;shadow=0;glass=0;rotation=270;strokeWidth=1;fontStyle=1" parent="o7J0vp0uQSlqZqwxGxeL-50" vertex="1">
          <mxGeometry x="-10" y="125" width="100" height="20" as="geometry" />
        </mxCell>
        <mxCell id="o7J0vp0uQSlqZqwxGxeL-79" value="Cliente/Usuário" style="text;html=1;resizable=0;autosize=1;align=center;verticalAlign=middle;points=[];fillColor=none;strokeColor=none;rounded=0;shadow=0;glass=0;rotation=270;strokeWidth=1;fontStyle=1" parent="o7J0vp0uQSlqZqwxGxeL-50" vertex="1">
          <mxGeometry x="-10" y="490" width="100" height="20" as="geometry" />
        </mxCell>
        <mxCell id="o7J0vp0uQSlqZqwxGxeL-88" style="edgeStyle=orthogonalEdgeStyle;rounded=0;orthogonalLoop=1;jettySize=auto;html=1;exitX=1;exitY=0.5;exitDx=0;exitDy=0;exitPerimeter=0;entryX=0;entryY=0.5;entryDx=0;entryDy=0;entryPerimeter=0;" parent="o7J0vp0uQSlqZqwxGxeL-50" source="o7J0vp0uQSlqZqwxGxeL-81" target="o7J0vp0uQSlqZqwxGxeL-82" edge="1">
          <mxGeometry relative="1" as="geometry" />
        </mxCell>
        <mxCell id="o7J0vp0uQSlqZqwxGxeL-81" value="" style="points=[[0.145,0.145,0],[0.5,0,0],[0.855,0.145,0],[1,0.5,0],[0.855,0.855,0],[0.5,1,0],[0.145,0.855,0],[0,0.5,0]];shape=mxgraph.bpmn.event;html=1;verticalLabelPosition=bottom;labelBackgroundColor=#ffffff;verticalAlign=top;align=center;perimeter=ellipsePerimeter;outlineConnect=0;aspect=fixed;outline=standard;symbol=general;rounded=1;" parent="o7J0vp0uQSlqZqwxGxeL-50" vertex="1">
          <mxGeometry x="56" y="95" width="50" height="50" as="geometry" />
        </mxCell>
        <mxCell id="o7J0vp0uQSlqZqwxGxeL-89" style="edgeStyle=orthogonalEdgeStyle;rounded=0;orthogonalLoop=1;jettySize=auto;html=1;exitX=1;exitY=0.5;exitDx=0;exitDy=0;exitPerimeter=0;entryX=0;entryY=0.5;entryDx=0;entryDy=0;entryPerimeter=0;" parent="o7J0vp0uQSlqZqwxGxeL-50" source="o7J0vp0uQSlqZqwxGxeL-82" target="o7J0vp0uQSlqZqwxGxeL-83" edge="1">
          <mxGeometry relative="1" as="geometry" />
        </mxCell>
        <mxCell id="o7J0vp0uQSlqZqwxGxeL-82" value="Coletar informações sobre fornecedores de requisitos" style="points=[[0.25,0,0],[0.5,0,0],[0.75,0,0],[1,0.25,0],[1,0.5,0],[1,0.75,0],[0.75,1,0],[0.5,1,0],[0.25,1,0],[0,0.75,0],[0,0.5,0],[0,0.25,0]];shape=mxgraph.bpmn.task;whiteSpace=wrap;rectStyle=rounded;size=10;taskMarker=abstract;rounded=0;shadow=0;glass=0;strokeWidth=1;" parent="o7J0vp0uQSlqZqwxGxeL-50" vertex="1">
          <mxGeometry x="136" y="80" width="120" height="80" as="geometry" />
        </mxCell>
        <mxCell id="o7J0vp0uQSlqZqwxGxeL-94" style="edgeStyle=orthogonalEdgeStyle;rounded=0;orthogonalLoop=1;jettySize=auto;html=1;exitX=1;exitY=0.5;exitDx=0;exitDy=0;exitPerimeter=0;entryX=0;entryY=0.5;entryDx=0;entryDy=0;entryPerimeter=0;" parent="o7J0vp0uQSlqZqwxGxeL-50" source="o7J0vp0uQSlqZqwxGxeL-83" target="o7J0vp0uQSlqZqwxGxeL-90" edge="1">
          <mxGeometry relative="1" as="geometry" />
        </mxCell>
        <mxCell id="o7J0vp0uQSlqZqwxGxeL-83" value="Definir técnicas de elicitação de requisitos" style="points=[[0.25,0,0],[0.5,0,0],[0.75,0,0],[1,0.25,0],[1,0.5,0],[1,0.75,0],[0.75,1,0],[0.5,1,0],[0.25,1,0],[0,0.75,0],[0,0.5,0],[0,0.25,0]];shape=mxgraph.bpmn.task;whiteSpace=wrap;rectStyle=rounded;size=10;taskMarker=abstract;rounded=0;shadow=0;glass=0;strokeWidth=1;" parent="o7J0vp0uQSlqZqwxGxeL-50" vertex="1">
          <mxGeometry x="286" y="80" width="120" height="80" as="geometry" />
        </mxCell>
        <mxCell id="o7J0vp0uQSlqZqwxGxeL-86" value="" style="endArrow=none;dashed=1;html=1;dashPattern=1 3;strokeWidth=2;exitX=0.5;exitY=0;exitDx=0;exitDy=0;exitPerimeter=0;" parent="o7J0vp0uQSlqZqwxGxeL-50" source="o7J0vp0uQSlqZqwxGxeL-83" target="zMS48Avbv7I0cEuDU5D0-65" edge="1">
          <mxGeometry width="50" height="50" relative="1" as="geometry">
            <mxPoint x="316" y="140" as="sourcePoint" />
            <mxPoint x="345.02" y="54" as="targetPoint" />
          </mxGeometry>
        </mxCell>
        <mxCell id="o7J0vp0uQSlqZqwxGxeL-95" style="edgeStyle=orthogonalEdgeStyle;rounded=0;orthogonalLoop=1;jettySize=auto;html=1;exitX=0.5;exitY=0;exitDx=0;exitDy=0;exitPerimeter=0;entryX=0;entryY=0.5;entryDx=0;entryDy=0;entryPerimeter=0;" parent="o7J0vp0uQSlqZqwxGxeL-50" source="o7J0vp0uQSlqZqwxGxeL-90" target="o7J0vp0uQSlqZqwxGxeL-91" edge="1">
          <mxGeometry relative="1" as="geometry" />
        </mxCell>
        <mxCell id="o7J0vp0uQSlqZqwxGxeL-96" style="edgeStyle=orthogonalEdgeStyle;rounded=0;orthogonalLoop=1;jettySize=auto;html=1;exitX=0.5;exitY=1;exitDx=0;exitDy=0;exitPerimeter=0;entryX=0;entryY=0.5;entryDx=0;entryDy=0;entryPerimeter=0;" parent="o7J0vp0uQSlqZqwxGxeL-50" source="o7J0vp0uQSlqZqwxGxeL-90" target="o7J0vp0uQSlqZqwxGxeL-92" edge="1">
          <mxGeometry relative="1" as="geometry" />
        </mxCell>
        <mxCell id="o7J0vp0uQSlqZqwxGxeL-90" value="" style="points=[[0.25,0.25,0],[0.5,0,0],[0.75,0.25,0],[1,0.5,0],[0.75,0.75,0],[0.5,1,0],[0.25,0.75,0],[0,0.5,0]];shape=mxgraph.bpmn.gateway2;html=1;verticalLabelPosition=bottom;labelBackgroundColor=#ffffff;verticalAlign=top;align=center;perimeter=rhombusPerimeter;outlineConnect=0;outline=none;symbol=none;gwType=parallel;rounded=0;shadow=0;glass=0;strokeWidth=1;" parent="o7J0vp0uQSlqZqwxGxeL-50" vertex="1">
          <mxGeometry x="436" y="95" width="50" height="50" as="geometry" />
        </mxCell>
        <mxCell id="o7J0vp0uQSlqZqwxGxeL-98" style="edgeStyle=orthogonalEdgeStyle;rounded=0;orthogonalLoop=1;jettySize=auto;html=1;exitX=1;exitY=0.5;exitDx=0;exitDy=0;exitPerimeter=0;entryX=0.5;entryY=0;entryDx=0;entryDy=0;entryPerimeter=0;" parent="o7J0vp0uQSlqZqwxGxeL-50" source="o7J0vp0uQSlqZqwxGxeL-91" target="o7J0vp0uQSlqZqwxGxeL-97" edge="1">
          <mxGeometry relative="1" as="geometry" />
        </mxCell>
        <mxCell id="o7J0vp0uQSlqZqwxGxeL-91" value="Realizar reunião com fornecedor de requisitos" style="points=[[0.25,0,0],[0.5,0,0],[0.75,0,0],[1,0.25,0],[1,0.5,0],[1,0.75,0],[0.75,1,0],[0.5,1,0],[0.25,1,0],[0,0.75,0],[0,0.5,0],[0,0.25,0]];shape=mxgraph.bpmn.task;whiteSpace=wrap;rectStyle=rounded;size=10;taskMarker=abstract;rounded=0;shadow=0;glass=0;strokeWidth=1;" parent="o7J0vp0uQSlqZqwxGxeL-50" vertex="1">
          <mxGeometry x="500" y="32" width="120" height="80" as="geometry" />
        </mxCell>
        <mxCell id="o7J0vp0uQSlqZqwxGxeL-99" style="edgeStyle=orthogonalEdgeStyle;rounded=0;orthogonalLoop=1;jettySize=auto;html=1;exitX=1;exitY=0.5;exitDx=0;exitDy=0;exitPerimeter=0;entryX=0.5;entryY=1;entryDx=0;entryDy=0;entryPerimeter=0;" parent="o7J0vp0uQSlqZqwxGxeL-50" source="o7J0vp0uQSlqZqwxGxeL-92" target="o7J0vp0uQSlqZqwxGxeL-97" edge="1">
          <mxGeometry relative="1" as="geometry" />
        </mxCell>
        <mxCell id="o7J0vp0uQSlqZqwxGxeL-92" value="Analisar documentos fornecidos" style="points=[[0.25,0,0],[0.5,0,0],[0.75,0,0],[1,0.25,0],[1,0.5,0],[1,0.75,0],[0.75,1,0],[0.5,1,0],[0.25,1,0],[0,0.75,0],[0,0.5,0],[0,0.25,0]];shape=mxgraph.bpmn.task;whiteSpace=wrap;rectStyle=rounded;size=10;taskMarker=abstract;isLoopSub=1;rounded=1;labelPosition=center;verticalLabelPosition=bottom;align=center;verticalAlign=top;" parent="o7J0vp0uQSlqZqwxGxeL-50" vertex="1">
          <mxGeometry x="500" y="125" width="120" height="80" as="geometry" />
        </mxCell>
        <mxCell id="o7J0vp0uQSlqZqwxGxeL-104" style="edgeStyle=orthogonalEdgeStyle;rounded=0;orthogonalLoop=1;jettySize=auto;html=1;exitX=1;exitY=0.5;exitDx=0;exitDy=0;exitPerimeter=0;entryX=0;entryY=0.5;entryDx=0;entryDy=0;entryPerimeter=0;" parent="o7J0vp0uQSlqZqwxGxeL-50" source="o7J0vp0uQSlqZqwxGxeL-97" target="o7J0vp0uQSlqZqwxGxeL-100" edge="1">
          <mxGeometry relative="1" as="geometry" />
        </mxCell>
        <mxCell id="o7J0vp0uQSlqZqwxGxeL-97" value="" style="points=[[0.25,0.25,0],[0.5,0,0],[0.75,0.25,0],[1,0.5,0],[0.75,0.75,0],[0.5,1,0],[0.25,0.75,0],[0,0.5,0]];shape=mxgraph.bpmn.gateway2;html=1;verticalLabelPosition=bottom;labelBackgroundColor=#ffffff;verticalAlign=top;align=center;perimeter=rhombusPerimeter;outlineConnect=0;outline=none;symbol=none;gwType=parallel;rounded=0;shadow=0;glass=0;strokeWidth=1;" parent="o7J0vp0uQSlqZqwxGxeL-50" vertex="1">
          <mxGeometry x="632" y="95" width="50" height="50" as="geometry" />
        </mxCell>
        <mxCell id="o7J0vp0uQSlqZqwxGxeL-110" style="edgeStyle=orthogonalEdgeStyle;rounded=0;orthogonalLoop=1;jettySize=auto;html=1;exitX=1;exitY=0.5;exitDx=0;exitDy=0;exitPerimeter=0;" parent="o7J0vp0uQSlqZqwxGxeL-50" source="o7J0vp0uQSlqZqwxGxeL-100" target="o7J0vp0uQSlqZqwxGxeL-109" edge="1">
          <mxGeometry relative="1" as="geometry" />
        </mxCell>
        <mxCell id="o7J0vp0uQSlqZqwxGxeL-100" value="Registrar comunicações" style="points=[[0.25,0,0],[0.5,0,0],[0.75,0,0],[1,0.25,0],[1,0.5,0],[1,0.75,0],[0.75,1,0],[0.5,1,0],[0.25,1,0],[0,0.75,0],[0,0.5,0],[0,0.25,0]];shape=mxgraph.bpmn.task;whiteSpace=wrap;rectStyle=rounded;size=10;taskMarker=abstract;rounded=0;shadow=0;glass=0;strokeWidth=1;" parent="o7J0vp0uQSlqZqwxGxeL-50" vertex="1">
          <mxGeometry x="701" y="80" width="120" height="80" as="geometry" />
        </mxCell>
        <mxCell id="o7J0vp0uQSlqZqwxGxeL-105" value="Ata de reunião" style="shape=mxgraph.bpmn.data;labelPosition=center;verticalLabelPosition=middle;align=center;verticalAlign=middle;whiteSpace=wrap;size=15;html=1;bpmnTransferType=output;rounded=0;shadow=0;glass=0;strokeWidth=1;" parent="o7J0vp0uQSlqZqwxGxeL-50" vertex="1">
          <mxGeometry x="711" y="10" width="100" height="40" as="geometry" />
        </mxCell>
        <mxCell id="o7J0vp0uQSlqZqwxGxeL-106" value="" style="edgeStyle=elbowEdgeStyle;fontSize=12;html=1;endFill=0;startFill=0;endSize=6;startSize=6;dashed=1;dashPattern=1 4;endArrow=openThin;startArrow=none;entryX=0.5;entryY=1;entryDx=0;entryDy=0;entryPerimeter=0;" parent="o7J0vp0uQSlqZqwxGxeL-50" source="o7J0vp0uQSlqZqwxGxeL-100" target="o7J0vp0uQSlqZqwxGxeL-105" edge="1">
          <mxGeometry width="160" relative="1" as="geometry">
            <mxPoint x="371" y="160" as="sourcePoint" />
            <mxPoint x="531" y="160" as="targetPoint" />
          </mxGeometry>
        </mxCell>
        <mxCell id="o7J0vp0uQSlqZqwxGxeL-113" style="edgeStyle=orthogonalEdgeStyle;rounded=0;orthogonalLoop=1;jettySize=auto;html=1;exitX=0.5;exitY=1;exitDx=0;exitDy=0;exitPerimeter=0;entryX=0.5;entryY=0;entryDx=0;entryDy=0;entryPerimeter=0;" parent="o7J0vp0uQSlqZqwxGxeL-50" source="o7J0vp0uQSlqZqwxGxeL-109" target="o7J0vp0uQSlqZqwxGxeL-111" edge="1">
          <mxGeometry relative="1" as="geometry">
            <mxPoint x="917" y="200" as="targetPoint" />
          </mxGeometry>
        </mxCell>
        <mxCell id="o7J0vp0uQSlqZqwxGxeL-109" value="Verificar se todos os requisitos do fornecedor foram atendidos" style="points=[[0.25,0,0],[0.5,0,0],[0.75,0,0],[1,0.25,0],[1,0.5,0],[1,0.75,0],[0.75,1,0],[0.5,1,0],[0.25,1,0],[0,0.75,0],[0,0.5,0],[0,0.25,0]];shape=mxgraph.bpmn.task;whiteSpace=wrap;rectStyle=rounded;size=10;taskMarker=abstract;rounded=0;shadow=0;glass=0;strokeWidth=1;" parent="o7J0vp0uQSlqZqwxGxeL-50" vertex="1">
          <mxGeometry x="857" y="80" width="120" height="80" as="geometry" />
        </mxCell>
        <mxCell id="o7J0vp0uQSlqZqwxGxeL-112" value="" style="edgeStyle=orthogonalEdgeStyle;rounded=0;orthogonalLoop=1;jettySize=auto;html=1;entryX=0.75;entryY=1;entryDx=0;entryDy=0;entryPerimeter=0;exitX=0;exitY=0.5;exitDx=0;exitDy=0;exitPerimeter=0;labelPosition=left;verticalLabelPosition=top;align=right;verticalAlign=bottom;" parent="o7J0vp0uQSlqZqwxGxeL-50" source="o7J0vp0uQSlqZqwxGxeL-111" target="o7J0vp0uQSlqZqwxGxeL-83" edge="1">
          <mxGeometry relative="1" as="geometry">
            <mxPoint x="870" y="225" as="sourcePoint" />
          </mxGeometry>
        </mxCell>
        <mxCell id="o7J0vp0uQSlqZqwxGxeL-119" value="Sim" style="edgeStyle=orthogonalEdgeStyle;rounded=0;orthogonalLoop=1;jettySize=auto;html=1;exitX=1;exitY=0.5;exitDx=0;exitDy=0;exitPerimeter=0;entryX=0;entryY=0.5;entryDx=0;entryDy=0;entryPerimeter=0;labelPosition=left;verticalLabelPosition=top;align=right;verticalAlign=bottom;" parent="o7J0vp0uQSlqZqwxGxeL-50" source="o7J0vp0uQSlqZqwxGxeL-111" target="o7J0vp0uQSlqZqwxGxeL-115" edge="1">
          <mxGeometry relative="1" as="geometry" />
        </mxCell>
        <mxCell id="o7J0vp0uQSlqZqwxGxeL-111" value="" style="points=[[0.25,0.25,0],[0.5,0,0],[0.75,0.25,0],[1,0.5,0],[0.75,0.75,0],[0.5,1,0],[0.25,0.75,0],[0,0.5,0]];shape=mxgraph.bpmn.gateway2;html=1;verticalLabelPosition=bottom;labelBackgroundColor=#ffffff;verticalAlign=top;align=center;perimeter=rhombusPerimeter;outlineConnect=0;outline=none;symbol=none;rounded=0;shadow=0;glass=0;strokeWidth=1;" parent="o7J0vp0uQSlqZqwxGxeL-50" vertex="1">
          <mxGeometry x="892" y="200" width="50" height="50" as="geometry" />
        </mxCell>
        <mxCell id="o7J0vp0uQSlqZqwxGxeL-118" style="edgeStyle=orthogonalEdgeStyle;rounded=0;orthogonalLoop=1;jettySize=auto;html=1;exitX=0.5;exitY=0;exitDx=0;exitDy=0;exitPerimeter=0;entryX=0.5;entryY=1;entryDx=0;entryDy=0;entryPerimeter=0;" parent="o7J0vp0uQSlqZqwxGxeL-50" source="o7J0vp0uQSlqZqwxGxeL-115" target="o7J0vp0uQSlqZqwxGxeL-116" edge="1">
          <mxGeometry relative="1" as="geometry" />
        </mxCell>
        <mxCell id="zMS48Avbv7I0cEuDU5D0-2" style="edgeStyle=orthogonalEdgeStyle;rounded=0;orthogonalLoop=1;jettySize=auto;html=1;exitX=1;exitY=0.5;exitDx=0;exitDy=0;exitPerimeter=0;entryX=0;entryY=0.5;entryDx=0;entryDy=0;entryPerimeter=0;" edge="1" parent="o7J0vp0uQSlqZqwxGxeL-50" source="o7J0vp0uQSlqZqwxGxeL-115" target="zMS48Avbv7I0cEuDU5D0-1">
          <mxGeometry relative="1" as="geometry">
            <Array as="points">
              <mxPoint x="1150" y="225" />
              <mxPoint x="1150" y="110" />
            </Array>
          </mxGeometry>
        </mxCell>
        <mxCell id="o7J0vp0uQSlqZqwxGxeL-115" value="Documentar requisitos" style="points=[[0.25,0,0],[0.5,0,0],[0.75,0,0],[1,0.25,0],[1,0.5,0],[1,0.75,0],[0.75,1,0],[0.5,1,0],[0.25,1,0],[0,0.75,0],[0,0.5,0],[0,0.25,0]];shape=mxgraph.bpmn.task;whiteSpace=wrap;rectStyle=rounded;size=10;taskMarker=abstract;rounded=0;shadow=0;glass=0;strokeWidth=1;" parent="o7J0vp0uQSlqZqwxGxeL-50" vertex="1">
          <mxGeometry x="970" y="185" width="120" height="80" as="geometry" />
        </mxCell>
        <mxCell id="o7J0vp0uQSlqZqwxGxeL-116" value="Lista de requisitos, especificações de casos de uso, especificaçõs de estórias, etc." style="shape=mxgraph.bpmn.data;labelPosition=center;verticalLabelPosition=middle;align=center;verticalAlign=middle;whiteSpace=wrap;size=15;html=1;bpmnTransferType=output;rounded=0;shadow=0;glass=0;strokeWidth=1;" parent="o7J0vp0uQSlqZqwxGxeL-50" vertex="1">
          <mxGeometry x="940" y="9" width="180" height="51" as="geometry" />
        </mxCell>
        <mxCell id="zMS48Avbv7I0cEuDU5D0-4" style="edgeStyle=orthogonalEdgeStyle;rounded=0;orthogonalLoop=1;jettySize=auto;html=1;exitX=0.5;exitY=1;exitDx=0;exitDy=0;exitPerimeter=0;entryX=1;entryY=0.5;entryDx=0;entryDy=0;entryPerimeter=0;" edge="1" parent="o7J0vp0uQSlqZqwxGxeL-50" source="zMS48Avbv7I0cEuDU5D0-1" target="zMS48Avbv7I0cEuDU5D0-3">
          <mxGeometry relative="1" as="geometry" />
        </mxCell>
        <mxCell id="zMS48Avbv7I0cEuDU5D0-1" value="Avaliar qualidade técnica dos requisitos" style="points=[[0.25,0,0],[0.5,0,0],[0.75,0,0],[1,0.25,0],[1,0.5,0],[1,0.75,0],[0.75,1,0],[0.5,1,0],[0.25,1,0],[0,0.75,0],[0,0.5,0],[0,0.25,0]];shape=mxgraph.bpmn.task;whiteSpace=wrap;rectStyle=rounded;size=10;taskMarker=abstract;isLoopSub=1;rounded=1;labelPosition=center;verticalLabelPosition=top;align=center;verticalAlign=bottom;" vertex="1" parent="o7J0vp0uQSlqZqwxGxeL-50">
          <mxGeometry x="1430" y="65" width="120" height="80" as="geometry" />
        </mxCell>
        <mxCell id="zMS48Avbv7I0cEuDU5D0-8" style="edgeStyle=orthogonalEdgeStyle;rounded=0;orthogonalLoop=1;jettySize=auto;html=1;exitX=0.5;exitY=1;exitDx=0;exitDy=0;exitPerimeter=0;" edge="1" parent="o7J0vp0uQSlqZqwxGxeL-50" source="zMS48Avbv7I0cEuDU5D0-3" target="zMS48Avbv7I0cEuDU5D0-7">
          <mxGeometry relative="1" as="geometry" />
        </mxCell>
        <mxCell id="zMS48Avbv7I0cEuDU5D0-3" value="Realizar reunião com fornecedores de requsitos" style="points=[[0.25,0,0],[0.5,0,0],[0.75,0,0],[1,0.25,0],[1,0.5,0],[1,0.75,0],[0.75,1,0],[0.5,1,0],[0.25,1,0],[0,0.75,0],[0,0.5,0],[0,0.25,0]];shape=mxgraph.bpmn.task;whiteSpace=wrap;rectStyle=rounded;size=10;taskMarker=abstract;rounded=0;shadow=0;glass=0;strokeWidth=1;" vertex="1" parent="o7J0vp0uQSlqZqwxGxeL-50">
          <mxGeometry x="1180" y="160" width="120" height="80" as="geometry" />
        </mxCell>
        <mxCell id="zMS48Avbv7I0cEuDU5D0-10" style="edgeStyle=orthogonalEdgeStyle;rounded=0;orthogonalLoop=1;jettySize=auto;html=1;exitX=0;exitY=0.5;exitDx=0;exitDy=0;exitPerimeter=0;entryX=1;entryY=0.5;entryDx=0;entryDy=0;entryPerimeter=0;" edge="1" parent="o7J0vp0uQSlqZqwxGxeL-50" source="zMS48Avbv7I0cEuDU5D0-7" target="zMS48Avbv7I0cEuDU5D0-9">
          <mxGeometry relative="1" as="geometry" />
        </mxCell>
        <mxCell id="zMS48Avbv7I0cEuDU5D0-7" value="Avaliar se requsitos atendem as necessidades e espectativas" style="points=[[0.25,0,0],[0.5,0,0],[0.75,0,0],[1,0.25,0],[1,0.5,0],[1,0.75,0],[0.75,1,0],[0.5,1,0],[0.25,1,0],[0,0.75,0],[0,0.5,0],[0,0.25,0]];shape=mxgraph.bpmn.task;whiteSpace=wrap;rectStyle=rounded;size=10;taskMarker=abstract;rounded=0;shadow=0;glass=0;strokeWidth=1;" vertex="1" parent="o7J0vp0uQSlqZqwxGxeL-50">
          <mxGeometry x="1180" y="330" width="120" height="80" as="geometry" />
        </mxCell>
        <mxCell id="zMS48Avbv7I0cEuDU5D0-11" value="Não" style="edgeStyle=orthogonalEdgeStyle;rounded=0;orthogonalLoop=1;jettySize=auto;html=1;exitX=0;exitY=0.5;exitDx=0;exitDy=0;exitPerimeter=0;entryX=0.25;entryY=1;entryDx=0;entryDy=0;entryPerimeter=0;labelPosition=right;verticalLabelPosition=top;align=left;verticalAlign=bottom;" edge="1" parent="o7J0vp0uQSlqZqwxGxeL-50" source="zMS48Avbv7I0cEuDU5D0-9" target="o7J0vp0uQSlqZqwxGxeL-83">
          <mxGeometry relative="1" as="geometry" />
        </mxCell>
        <mxCell id="zMS48Avbv7I0cEuDU5D0-13" value="Sim" style="edgeStyle=orthogonalEdgeStyle;rounded=0;orthogonalLoop=1;jettySize=auto;html=1;exitX=0.5;exitY=1;exitDx=0;exitDy=0;exitPerimeter=0;entryX=0.5;entryY=0;entryDx=0;entryDy=0;entryPerimeter=0;labelPosition=right;verticalLabelPosition=middle;align=left;verticalAlign=middle;" edge="1" parent="o7J0vp0uQSlqZqwxGxeL-50" source="zMS48Avbv7I0cEuDU5D0-9" target="zMS48Avbv7I0cEuDU5D0-12">
          <mxGeometry relative="1" as="geometry" />
        </mxCell>
        <mxCell id="zMS48Avbv7I0cEuDU5D0-9" value="" style="points=[[0.25,0.25,0],[0.5,0,0],[0.75,0.25,0],[1,0.5,0],[0.75,0.75,0],[0.5,1,0],[0.25,0.75,0],[0,0.5,0]];shape=mxgraph.bpmn.gateway2;html=1;verticalLabelPosition=bottom;labelBackgroundColor=#ffffff;verticalAlign=top;align=center;perimeter=rhombusPerimeter;outlineConnect=0;outline=none;symbol=none;rounded=0;shadow=0;glass=0;strokeWidth=1;" vertex="1" parent="o7J0vp0uQSlqZqwxGxeL-50">
          <mxGeometry x="535" y="345" width="50" height="50" as="geometry" />
        </mxCell>
        <mxCell id="zMS48Avbv7I0cEuDU5D0-58" style="edgeStyle=orthogonalEdgeStyle;rounded=0;orthogonalLoop=1;jettySize=auto;html=1;exitX=0.5;exitY=1;exitDx=0;exitDy=0;exitPerimeter=0;entryX=0.5;entryY=0;entryDx=0;entryDy=0;entryPerimeter=0;" edge="1" parent="o7J0vp0uQSlqZqwxGxeL-50" source="zMS48Avbv7I0cEuDU5D0-12" target="zMS48Avbv7I0cEuDU5D0-57">
          <mxGeometry relative="1" as="geometry" />
        </mxCell>
        <mxCell id="zMS48Avbv7I0cEuDU5D0-60" style="edgeStyle=orthogonalEdgeStyle;rounded=0;orthogonalLoop=1;jettySize=auto;html=1;exitX=1;exitY=0.5;exitDx=0;exitDy=0;exitPerimeter=0;entryX=0;entryY=0.5;entryDx=0;entryDy=0;entryPerimeter=0;" edge="1" parent="o7J0vp0uQSlqZqwxGxeL-50" source="zMS48Avbv7I0cEuDU5D0-12" target="zMS48Avbv7I0cEuDU5D0-59">
          <mxGeometry relative="1" as="geometry" />
        </mxCell>
        <mxCell id="zMS48Avbv7I0cEuDU5D0-12" value="Registrar aceite de requisitos" style="points=[[0.25,0,0],[0.5,0,0],[0.75,0,0],[1,0.25,0],[1,0.5,0],[1,0.75,0],[0.75,1,0],[0.5,1,0],[0.25,1,0],[0,0.75,0],[0,0.5,0],[0,0.25,0]];shape=mxgraph.bpmn.task;whiteSpace=wrap;rectStyle=rounded;size=10;taskMarker=abstract;rounded=0;shadow=0;glass=0;strokeWidth=1;" vertex="1" parent="o7J0vp0uQSlqZqwxGxeL-50">
          <mxGeometry x="500" y="430" width="120" height="80" as="geometry" />
        </mxCell>
        <mxCell id="zMS48Avbv7I0cEuDU5D0-57" value="Documento de aceitação" style="shape=mxgraph.bpmn.data;labelPosition=center;verticalLabelPosition=middle;align=center;verticalAlign=middle;whiteSpace=wrap;size=15;html=1;bpmnTransferType=output;rounded=0;shadow=0;glass=0;strokeWidth=1;" vertex="1" parent="o7J0vp0uQSlqZqwxGxeL-50">
          <mxGeometry x="510" y="570" width="100" height="70" as="geometry" />
        </mxCell>
        <mxCell id="zMS48Avbv7I0cEuDU5D0-59" value="" style="points=[[0.145,0.145,0],[0.5,0,0],[0.855,0.145,0],[1,0.5,0],[0.855,0.855,0],[0.5,1,0],[0.145,0.855,0],[0,0.5,0]];shape=mxgraph.bpmn.event;html=1;verticalLabelPosition=bottom;labelBackgroundColor=#ffffff;verticalAlign=top;align=center;perimeter=ellipsePerimeter;outlineConnect=0;aspect=fixed;outline=end;symbol=terminate2;" vertex="1" parent="o7J0vp0uQSlqZqwxGxeL-50">
          <mxGeometry x="720" y="445" width="50" height="50" as="geometry" />
        </mxCell>
        <mxCell id="zMS48Avbv7I0cEuDU5D0-65" value="Entrevistas, brainstorms, etc" style="shape=partialRectangle;whiteSpace=wrap;html=1;bottom=0;right=0;fillColor=none;rounded=1;strokeWidth=1;" vertex="1" parent="o7J0vp0uQSlqZqwxGxeL-50">
          <mxGeometry x="286" y="10" width="120" height="41" as="geometry" />
        </mxCell>
        <mxCell id="o7J0vp0uQSlqZqwxGxeL-80" value="" style="line;strokeWidth=1;html=1;rounded=0;shadow=0;glass=0;" parent="1" vertex="1">
          <mxGeometry x="33" y="718" width="1567" height="10" as="geometry" />
        </mxCell>
        <mxCell id="o7J0vp0uQSlqZqwxGxeL-124" value="Não" style="text;html=1;align=center;verticalAlign=middle;resizable=0;points=[];autosize=1;strokeColor=none;" parent="1" vertex="1">
          <mxGeometry x="856" y="567" width="40" height="20" as="geometry" />
        </mxCell>
        <mxCell id="zMS48Avbv7I0cEuDU5D0-64" value="Processo 1" style="swimlane;horizontal=0;rounded=1;swimlaneLine=1;" vertex="1" parent="1">
          <mxGeometry x="10" y="1200" width="1590" height="460" as="geometry" />
        </mxCell>
        <mxCell id="zMS48Avbv7I0cEuDU5D0-66" value="Exemplos de critérios de avaliação: possuir identificação única; não ser ambíguo; estar consistente com os demais requisitos, etc. [IEEE 1998]." style="shape=partialRectangle;whiteSpace=wrap;html=1;bottom=0;right=0;fillColor=none;rounded=1;strokeWidth=1;" vertex="1" parent="zMS48Avbv7I0cEuDU5D0-64">
          <mxGeometry x="200" y="30" width="160" height="120" as="geometry" />
        </mxCell>
        <mxCell id="zMS48Avbv7I0cEuDU5D0-79" style="edgeStyle=orthogonalEdgeStyle;rounded=0;orthogonalLoop=1;jettySize=auto;html=1;exitX=1;exitY=0.5;exitDx=0;exitDy=0;exitPerimeter=0;entryX=0;entryY=0.5;entryDx=0;entryDy=0;entryPerimeter=0;" edge="1" parent="zMS48Avbv7I0cEuDU5D0-64" source="zMS48Avbv7I0cEuDU5D0-68" target="zMS48Avbv7I0cEuDU5D0-78">
          <mxGeometry relative="1" as="geometry" />
        </mxCell>
        <mxCell id="zMS48Avbv7I0cEuDU5D0-68" value="Definir critérios técnicos de avaliação de requisitos para aceite da equipe" style="points=[[0.25,0,0],[0.5,0,0],[0.75,0,0],[1,0.25,0],[1,0.5,0],[1,0.75,0],[0.75,1,0],[0.5,1,0],[0.25,1,0],[0,0.75,0],[0,0.5,0],[0,0.25,0]];shape=mxgraph.bpmn.task;whiteSpace=wrap;rectStyle=rounded;size=10;taskMarker=abstract;isLoopSub=1;rounded=1;labelPosition=center;verticalLabelPosition=bottom;align=center;verticalAlign=top;" vertex="1" parent="zMS48Avbv7I0cEuDU5D0-64">
          <mxGeometry x="220" y="200" width="120" height="80" as="geometry" />
        </mxCell>
        <mxCell id="zMS48Avbv7I0cEuDU5D0-69" value="&lt;div&gt;Equipe Técnica&lt;/div&gt;" style="text;html=1;resizable=0;autosize=1;align=center;verticalAlign=middle;points=[];fillColor=none;strokeColor=none;rounded=0;shadow=0;glass=0;rotation=270;strokeWidth=1;fontStyle=1" vertex="1" parent="zMS48Avbv7I0cEuDU5D0-64">
          <mxGeometry x="-10" y="180" width="100" height="20" as="geometry" />
        </mxCell>
        <mxCell id="zMS48Avbv7I0cEuDU5D0-72" style="edgeStyle=orthogonalEdgeStyle;rounded=0;orthogonalLoop=1;jettySize=auto;html=1;exitX=1;exitY=0.5;exitDx=0;exitDy=0;exitPerimeter=0;entryX=0;entryY=0.5;entryDx=0;entryDy=0;entryPerimeter=0;" edge="1" parent="zMS48Avbv7I0cEuDU5D0-64" source="zMS48Avbv7I0cEuDU5D0-70" target="zMS48Avbv7I0cEuDU5D0-68">
          <mxGeometry relative="1" as="geometry" />
        </mxCell>
        <mxCell id="zMS48Avbv7I0cEuDU5D0-70" value="" style="points=[[0.145,0.145,0],[0.5,0,0],[0.855,0.145,0],[1,0.5,0],[0.855,0.855,0],[0.5,1,0],[0.145,0.855,0],[0,0.5,0]];shape=mxgraph.bpmn.event;html=1;verticalLabelPosition=bottom;labelBackgroundColor=#ffffff;verticalAlign=top;align=center;perimeter=ellipsePerimeter;outlineConnect=0;aspect=fixed;outline=standard;symbol=general;rounded=1;strokeWidth=1;" vertex="1" parent="zMS48Avbv7I0cEuDU5D0-64">
          <mxGeometry x="90" y="215" width="50" height="50" as="geometry" />
        </mxCell>
        <mxCell id="zMS48Avbv7I0cEuDU5D0-71" value="Checklist" style="shape=mxgraph.bpmn.data;labelPosition=center;verticalLabelPosition=middle;align=center;verticalAlign=middle;whiteSpace=wrap;size=15;html=1;bpmnTransferType=output;rounded=0;shadow=0;glass=0;strokeWidth=1;" vertex="1" parent="zMS48Avbv7I0cEuDU5D0-64">
          <mxGeometry x="490" y="80" width="100" height="70" as="geometry" />
        </mxCell>
        <mxCell id="zMS48Avbv7I0cEuDU5D0-73" value="" style="endArrow=none;dashed=1;html=1;dashPattern=1 3;strokeWidth=2;exitX=0.5;exitY=0;exitDx=0;exitDy=0;exitPerimeter=0;entryX=0.5;entryY=1;entryDx=0;entryDy=0;" edge="1" parent="zMS48Avbv7I0cEuDU5D0-64" source="zMS48Avbv7I0cEuDU5D0-68" target="zMS48Avbv7I0cEuDU5D0-66">
          <mxGeometry width="50" height="50" relative="1" as="geometry">
            <mxPoint x="370" y="100" as="sourcePoint" />
            <mxPoint x="420" y="50" as="targetPoint" />
          </mxGeometry>
        </mxCell>
        <mxCell id="zMS48Avbv7I0cEuDU5D0-76" value="" style="edgeStyle=elbowEdgeStyle;fontSize=12;html=1;endFill=0;startFill=0;endSize=6;startSize=6;dashed=1;dashPattern=1 4;endArrow=openThin;startArrow=none;exitX=1.033;exitY=0.113;exitDx=0;exitDy=0;exitPerimeter=0;entryX=0;entryY=0.5;entryDx=0;entryDy=0;entryPerimeter=0;" edge="1" parent="zMS48Avbv7I0cEuDU5D0-64" source="zMS48Avbv7I0cEuDU5D0-68" target="zMS48Avbv7I0cEuDU5D0-71">
          <mxGeometry width="160" relative="1" as="geometry">
            <mxPoint x="310" y="80" as="sourcePoint" />
            <mxPoint x="470" y="80" as="targetPoint" />
          </mxGeometry>
        </mxCell>
        <mxCell id="zMS48Avbv7I0cEuDU5D0-94" style="edgeStyle=orthogonalEdgeStyle;rounded=0;orthogonalLoop=1;jettySize=auto;html=1;exitX=1;exitY=0.5;exitDx=0;exitDy=0;exitPerimeter=0;entryX=0;entryY=0.5;entryDx=0;entryDy=0;entryPerimeter=0;" edge="1" parent="zMS48Avbv7I0cEuDU5D0-64" source="zMS48Avbv7I0cEuDU5D0-78" target="zMS48Avbv7I0cEuDU5D0-91">
          <mxGeometry relative="1" as="geometry" />
        </mxCell>
        <mxCell id="zMS48Avbv7I0cEuDU5D0-78" value="Analisar requisitos de acordo com critérios estabelecidos" style="points=[[0.25,0,0],[0.5,0,0],[0.75,0,0],[1,0.25,0],[1,0.5,0],[1,0.75,0],[0.75,1,0],[0.5,1,0],[0.25,1,0],[0,0.75,0],[0,0.5,0],[0,0.25,0]];shape=mxgraph.bpmn.task;whiteSpace=wrap;rectStyle=rounded;size=10;taskMarker=abstract;rounded=0;shadow=0;glass=0;strokeWidth=1;" vertex="1" parent="zMS48Avbv7I0cEuDU5D0-64">
          <mxGeometry x="430" y="200" width="120" height="80" as="geometry" />
        </mxCell>
        <mxCell id="zMS48Avbv7I0cEuDU5D0-95" style="edgeStyle=orthogonalEdgeStyle;rounded=0;orthogonalLoop=1;jettySize=auto;html=1;exitX=1;exitY=0.5;exitDx=0;exitDy=0;exitPerimeter=0;entryX=0;entryY=0.5;entryDx=0;entryDy=0;entryPerimeter=0;" edge="1" parent="zMS48Avbv7I0cEuDU5D0-64" source="zMS48Avbv7I0cEuDU5D0-91" target="zMS48Avbv7I0cEuDU5D0-92">
          <mxGeometry relative="1" as="geometry" />
        </mxCell>
        <mxCell id="zMS48Avbv7I0cEuDU5D0-91" value="Verificar aprovação dos requisitos" style="points=[[0.25,0,0],[0.5,0,0],[0.75,0,0],[1,0.25,0],[1,0.5,0],[1,0.75,0],[0.75,1,0],[0.5,1,0],[0.25,1,0],[0,0.75,0],[0,0.5,0],[0,0.25,0]];shape=mxgraph.bpmn.task;whiteSpace=wrap;rectStyle=rounded;size=10;taskMarker=abstract;rounded=0;shadow=0;glass=0;strokeWidth=1;" vertex="1" parent="zMS48Avbv7I0cEuDU5D0-64">
          <mxGeometry x="610" y="200" width="120" height="80" as="geometry" />
        </mxCell>
        <mxCell id="zMS48Avbv7I0cEuDU5D0-96" value="Aprovado" style="edgeStyle=orthogonalEdgeStyle;rounded=0;orthogonalLoop=1;jettySize=auto;html=1;exitX=1;exitY=0.5;exitDx=0;exitDy=0;exitPerimeter=0;entryX=0;entryY=0.5;entryDx=0;entryDy=0;entryPerimeter=0;labelPosition=center;verticalLabelPosition=bottom;align=center;verticalAlign=top;" edge="1" parent="zMS48Avbv7I0cEuDU5D0-64" source="zMS48Avbv7I0cEuDU5D0-92" target="zMS48Avbv7I0cEuDU5D0-93">
          <mxGeometry relative="1" as="geometry" />
        </mxCell>
        <mxCell id="zMS48Avbv7I0cEuDU5D0-98" value="Reprovado" style="edgeStyle=orthogonalEdgeStyle;rounded=0;orthogonalLoop=1;jettySize=auto;html=1;exitX=0.5;exitY=1;exitDx=0;exitDy=0;exitPerimeter=0;labelPosition=left;verticalLabelPosition=middle;align=right;verticalAlign=middle;" edge="1" parent="zMS48Avbv7I0cEuDU5D0-64" source="zMS48Avbv7I0cEuDU5D0-92" target="zMS48Avbv7I0cEuDU5D0-97">
          <mxGeometry relative="1" as="geometry" />
        </mxCell>
        <mxCell id="zMS48Avbv7I0cEuDU5D0-92" value="" style="points=[[0.25,0.25,0],[0.5,0,0],[0.75,0.25,0],[1,0.5,0],[0.75,0.75,0],[0.5,1,0],[0.25,0.75,0],[0,0.5,0]];shape=mxgraph.bpmn.gateway2;html=1;verticalLabelPosition=bottom;labelBackgroundColor=#ffffff;verticalAlign=top;align=center;perimeter=rhombusPerimeter;outlineConnect=0;outline=none;symbol=none;rounded=1;strokeWidth=1;" vertex="1" parent="zMS48Avbv7I0cEuDU5D0-64">
          <mxGeometry x="792" y="215" width="50" height="50" as="geometry" />
        </mxCell>
        <mxCell id="zMS48Avbv7I0cEuDU5D0-103" style="edgeStyle=orthogonalEdgeStyle;rounded=0;orthogonalLoop=1;jettySize=auto;html=1;exitX=1;exitY=0.5;exitDx=0;exitDy=0;exitPerimeter=0;entryX=0;entryY=0.5;entryDx=0;entryDy=0;entryPerimeter=0;" edge="1" parent="zMS48Avbv7I0cEuDU5D0-64" source="zMS48Avbv7I0cEuDU5D0-93" target="zMS48Avbv7I0cEuDU5D0-102">
          <mxGeometry relative="1" as="geometry" />
        </mxCell>
        <mxCell id="zMS48Avbv7I0cEuDU5D0-93" value="Obter comprometimento formal da equipe técnica com os requisitos" style="points=[[0.25,0,0],[0.5,0,0],[0.75,0,0],[1,0.25,0],[1,0.5,0],[1,0.75,0],[0.75,1,0],[0.5,1,0],[0.25,1,0],[0,0.75,0],[0,0.5,0],[0,0.25,0]];shape=mxgraph.bpmn.task;whiteSpace=wrap;rectStyle=rounded;size=10;taskMarker=abstract;rounded=0;shadow=0;glass=0;strokeWidth=1;" vertex="1" parent="zMS48Avbv7I0cEuDU5D0-64">
          <mxGeometry x="900" y="200" width="120" height="80" as="geometry" />
        </mxCell>
        <mxCell id="zMS48Avbv7I0cEuDU5D0-101" style="edgeStyle=orthogonalEdgeStyle;rounded=0;orthogonalLoop=1;jettySize=auto;html=1;exitX=0;exitY=0.5;exitDx=0;exitDy=0;exitPerimeter=0;" edge="1" parent="zMS48Avbv7I0cEuDU5D0-64" source="zMS48Avbv7I0cEuDU5D0-97" target="zMS48Avbv7I0cEuDU5D0-99">
          <mxGeometry relative="1" as="geometry" />
        </mxCell>
        <mxCell id="zMS48Avbv7I0cEuDU5D0-97" value="Apontar correções" style="points=[[0.25,0,0],[0.5,0,0],[0.75,0,0],[1,0.25,0],[1,0.5,0],[1,0.75,0],[0.75,1,0],[0.5,1,0],[0.25,1,0],[0,0.75,0],[0,0.5,0],[0,0.25,0]];shape=mxgraph.bpmn.task;whiteSpace=wrap;rectStyle=rounded;size=10;taskMarker=abstract;rounded=0;shadow=0;glass=0;strokeWidth=1;" vertex="1" parent="zMS48Avbv7I0cEuDU5D0-64">
          <mxGeometry x="757" y="350" width="120" height="80" as="geometry" />
        </mxCell>
        <mxCell id="zMS48Avbv7I0cEuDU5D0-100" style="edgeStyle=orthogonalEdgeStyle;rounded=0;orthogonalLoop=1;jettySize=auto;html=1;exitX=0;exitY=0.5;exitDx=0;exitDy=0;exitPerimeter=0;entryX=0.5;entryY=1;entryDx=0;entryDy=0;entryPerimeter=0;" edge="1" parent="zMS48Avbv7I0cEuDU5D0-64" source="zMS48Avbv7I0cEuDU5D0-99" target="zMS48Avbv7I0cEuDU5D0-78">
          <mxGeometry relative="1" as="geometry" />
        </mxCell>
        <mxCell id="zMS48Avbv7I0cEuDU5D0-99" value="Proceder correções apontadas" style="points=[[0.25,0,0],[0.5,0,0],[0.75,0,0],[1,0.25,0],[1,0.5,0],[1,0.75,0],[0.75,1,0],[0.5,1,0],[0.25,1,0],[0,0.75,0],[0,0.5,0],[0,0.25,0]];shape=mxgraph.bpmn.task;whiteSpace=wrap;rectStyle=rounded;size=10;taskMarker=abstract;rounded=0;shadow=0;glass=0;strokeWidth=1;" vertex="1" parent="zMS48Avbv7I0cEuDU5D0-64">
          <mxGeometry x="590" y="350" width="120" height="80" as="geometry" />
        </mxCell>
        <mxCell id="zMS48Avbv7I0cEuDU5D0-107" style="edgeStyle=orthogonalEdgeStyle;rounded=0;orthogonalLoop=1;jettySize=auto;html=1;exitX=1;exitY=0.5;exitDx=0;exitDy=0;exitPerimeter=0;entryX=0;entryY=0.5;entryDx=0;entryDy=0;entryPerimeter=0;" edge="1" parent="zMS48Avbv7I0cEuDU5D0-64" source="zMS48Avbv7I0cEuDU5D0-102" target="zMS48Avbv7I0cEuDU5D0-106">
          <mxGeometry relative="1" as="geometry" />
        </mxCell>
        <mxCell id="zMS48Avbv7I0cEuDU5D0-102" value="Registrar comprometimento formal da equipe técnica com os requisitos" style="points=[[0.25,0,0],[0.5,0,0],[0.75,0,0],[1,0.25,0],[1,0.5,0],[1,0.75,0],[0.75,1,0],[0.5,1,0],[0.25,1,0],[0,0.75,0],[0,0.5,0],[0,0.25,0]];shape=mxgraph.bpmn.task;whiteSpace=wrap;rectStyle=rounded;size=10;taskMarker=abstract;rounded=0;shadow=0;glass=0;strokeWidth=1;" vertex="1" parent="zMS48Avbv7I0cEuDU5D0-64">
          <mxGeometry x="1100" y="200" width="120" height="80" as="geometry" />
        </mxCell>
        <mxCell id="zMS48Avbv7I0cEuDU5D0-104" value="Ata de reunião, email, etc" style="shape=mxgraph.bpmn.data;labelPosition=center;verticalLabelPosition=middle;align=center;verticalAlign=middle;whiteSpace=wrap;size=15;html=1;bpmnTransferType=output;rounded=0;shadow=0;glass=0;strokeWidth=1;" vertex="1" parent="zMS48Avbv7I0cEuDU5D0-64">
          <mxGeometry x="1110" y="50" width="100" height="70" as="geometry" />
        </mxCell>
        <mxCell id="zMS48Avbv7I0cEuDU5D0-105" value="" style="edgeStyle=elbowEdgeStyle;fontSize=12;html=1;endFill=0;startFill=0;endSize=6;startSize=6;dashed=1;dashPattern=1 4;endArrow=openThin;startArrow=none;entryX=0.5;entryY=1;entryDx=0;entryDy=0;entryPerimeter=0;exitX=0.5;exitY=0;exitDx=0;exitDy=0;exitPerimeter=0;" edge="1" parent="zMS48Avbv7I0cEuDU5D0-64" source="zMS48Avbv7I0cEuDU5D0-102" target="zMS48Avbv7I0cEuDU5D0-104">
          <mxGeometry width="160" relative="1" as="geometry">
            <mxPoint x="960" y="180" as="sourcePoint" />
            <mxPoint x="1120" y="180" as="targetPoint" />
          </mxGeometry>
        </mxCell>
        <mxCell id="zMS48Avbv7I0cEuDU5D0-106" value="" style="points=[[0.145,0.145,0],[0.5,0,0],[0.855,0.145,0],[1,0.5,0],[0.855,0.855,0],[0.5,1,0],[0.145,0.855,0],[0,0.5,0]];shape=mxgraph.bpmn.event;html=1;verticalLabelPosition=bottom;labelBackgroundColor=#ffffff;verticalAlign=top;align=center;perimeter=ellipsePerimeter;outlineConnect=0;aspect=fixed;outline=end;symbol=terminate2;rounded=1;strokeWidth=1;" vertex="1" parent="zMS48Avbv7I0cEuDU5D0-64">
          <mxGeometry x="1350" y="215" width="50" height="50" as="geometry" />
        </mxCell>
        <mxCell id="zMS48Avbv7I0cEuDU5D0-108" value="GRE 2" style="text;html=1;align=center;verticalAlign=middle;resizable=0;points=[];autosize=1;strokeColor=none;" vertex="1" parent="1">
          <mxGeometry x="810" y="1670" width="50" height="20" as="geometry" />
        </mxCell>
        <mxCell id="zMS48Avbv7I0cEuDU5D0-109" value="" style="swimlane;horizontal=0;rounded=1;swimlaneLine=1;" vertex="1" parent="1">
          <mxGeometry x="10" y="1720" width="1590" height="570" as="geometry" />
        </mxCell>
        <mxCell id="zMS48Avbv7I0cEuDU5D0-132" style="edgeStyle=orthogonalEdgeStyle;rounded=0;orthogonalLoop=1;jettySize=auto;html=1;exitX=1;exitY=0.5;exitDx=0;exitDy=0;exitPerimeter=0;entryX=0;entryY=0.5;entryDx=0;entryDy=0;entryPerimeter=0;" edge="1" parent="zMS48Avbv7I0cEuDU5D0-109" source="zMS48Avbv7I0cEuDU5D0-110" target="zMS48Avbv7I0cEuDU5D0-111">
          <mxGeometry relative="1" as="geometry" />
        </mxCell>
        <mxCell id="zMS48Avbv7I0cEuDU5D0-110" value="" style="points=[[0.145,0.145,0],[0.5,0,0],[0.855,0.145,0],[1,0.5,0],[0.855,0.855,0],[0.5,1,0],[0.145,0.855,0],[0,0.5,0]];shape=mxgraph.bpmn.event;html=1;verticalLabelPosition=bottom;labelBackgroundColor=#ffffff;verticalAlign=top;align=center;perimeter=ellipsePerimeter;outlineConnect=0;aspect=fixed;outline=standard;symbol=general;rounded=1;strokeWidth=1;" vertex="1" parent="zMS48Avbv7I0cEuDU5D0-109">
          <mxGeometry x="60" y="105" width="50" height="50" as="geometry" />
        </mxCell>
        <mxCell id="zMS48Avbv7I0cEuDU5D0-133" style="edgeStyle=orthogonalEdgeStyle;rounded=0;orthogonalLoop=1;jettySize=auto;html=1;exitX=1;exitY=0.5;exitDx=0;exitDy=0;exitPerimeter=0;entryX=0;entryY=0.5;entryDx=0;entryDy=0;entryPerimeter=0;" edge="1" parent="zMS48Avbv7I0cEuDU5D0-109" source="zMS48Avbv7I0cEuDU5D0-111" target="zMS48Avbv7I0cEuDU5D0-112">
          <mxGeometry relative="1" as="geometry" />
        </mxCell>
        <mxCell id="zMS48Avbv7I0cEuDU5D0-111" value="Definir relacionamentos a serem utilizados" style="points=[[0.25,0,0],[0.5,0,0],[0.75,0,0],[1,0.25,0],[1,0.5,0],[1,0.75,0],[0.75,1,0],[0.5,1,0],[0.25,1,0],[0,0.75,0],[0,0.5,0],[0,0.25,0]];shape=mxgraph.bpmn.task;whiteSpace=wrap;rectStyle=rounded;size=10;taskMarker=abstract;isLoopSub=1;rounded=1;labelPosition=center;verticalLabelPosition=bottom;align=center;verticalAlign=top;" vertex="1" parent="zMS48Avbv7I0cEuDU5D0-109">
          <mxGeometry x="190" y="90" width="120" height="80" as="geometry" />
        </mxCell>
        <mxCell id="zMS48Avbv7I0cEuDU5D0-134" style="edgeStyle=orthogonalEdgeStyle;rounded=0;orthogonalLoop=1;jettySize=auto;html=1;exitX=1;exitY=0.5;exitDx=0;exitDy=0;exitPerimeter=0;entryX=0;entryY=0.5;entryDx=0;entryDy=0;entryPerimeter=0;" edge="1" parent="zMS48Avbv7I0cEuDU5D0-109" source="zMS48Avbv7I0cEuDU5D0-112" target="zMS48Avbv7I0cEuDU5D0-114">
          <mxGeometry relative="1" as="geometry" />
        </mxCell>
        <mxCell id="zMS48Avbv7I0cEuDU5D0-112" value="Identificar ferramentas par apoiarem o processo de rastreabilidade" style="points=[[0.25,0,0],[0.5,0,0],[0.75,0,0],[1,0.25,0],[1,0.5,0],[1,0.75,0],[0.75,1,0],[0.5,1,0],[0.25,1,0],[0,0.75,0],[0,0.5,0],[0,0.25,0]];shape=mxgraph.bpmn.task;whiteSpace=wrap;rectStyle=rounded;size=10;taskMarker=abstract;rounded=0;shadow=0;glass=0;strokeWidth=1;" vertex="1" parent="zMS48Avbv7I0cEuDU5D0-109">
          <mxGeometry x="410" y="90" width="120" height="80" as="geometry" />
        </mxCell>
        <mxCell id="zMS48Avbv7I0cEuDU5D0-113" value="Exemplo: Rational RequisitePro" style="shape=partialRectangle;whiteSpace=wrap;html=1;bottom=0;right=0;fillColor=none;rounded=1;strokeWidth=1;" vertex="1" parent="zMS48Avbv7I0cEuDU5D0-109">
          <mxGeometry x="410" y="20" width="120" height="41" as="geometry" />
        </mxCell>
        <mxCell id="zMS48Avbv7I0cEuDU5D0-135" style="edgeStyle=orthogonalEdgeStyle;rounded=0;orthogonalLoop=1;jettySize=auto;html=1;exitX=1;exitY=0.5;exitDx=0;exitDy=0;exitPerimeter=0;entryX=0;entryY=0.5;entryDx=0;entryDy=0;entryPerimeter=0;" edge="1" parent="zMS48Avbv7I0cEuDU5D0-109" source="zMS48Avbv7I0cEuDU5D0-114" target="zMS48Avbv7I0cEuDU5D0-115">
          <mxGeometry relative="1" as="geometry" />
        </mxCell>
        <mxCell id="zMS48Avbv7I0cEuDU5D0-114" value="Conscientizar equipe sobre a importância do processo de rastreabilidade" style="points=[[0.25,0,0],[0.5,0,0],[0.75,0,0],[1,0.25,0],[1,0.5,0],[1,0.75,0],[0.75,1,0],[0.5,1,0],[0.25,1,0],[0,0.75,0],[0,0.5,0],[0,0.25,0]];shape=mxgraph.bpmn.task;whiteSpace=wrap;rectStyle=rounded;size=10;taskMarker=abstract;isLoopSub=1;rounded=1;labelPosition=center;verticalLabelPosition=bottom;align=center;verticalAlign=top;" vertex="1" parent="zMS48Avbv7I0cEuDU5D0-109">
          <mxGeometry x="640" y="90" width="120" height="80" as="geometry" />
        </mxCell>
        <mxCell id="zMS48Avbv7I0cEuDU5D0-136" style="edgeStyle=orthogonalEdgeStyle;rounded=0;orthogonalLoop=1;jettySize=auto;html=1;exitX=1;exitY=0.5;exitDx=0;exitDy=0;exitPerimeter=0;entryX=0;entryY=0.5;entryDx=0;entryDy=0;entryPerimeter=0;" edge="1" parent="zMS48Avbv7I0cEuDU5D0-109" source="zMS48Avbv7I0cEuDU5D0-115" target="zMS48Avbv7I0cEuDU5D0-117">
          <mxGeometry relative="1" as="geometry" />
        </mxCell>
        <mxCell id="zMS48Avbv7I0cEuDU5D0-115" value="Estabelecer entidades a serem rastreadas" style="points=[[0.25,0,0],[0.5,0,0],[0.75,0,0],[1,0.25,0],[1,0.5,0],[1,0.75,0],[0.75,1,0],[0.5,1,0],[0.25,1,0],[0,0.75,0],[0,0.5,0],[0,0.25,0]];shape=mxgraph.bpmn.task;whiteSpace=wrap;rectStyle=rounded;size=10;taskMarker=abstract;rounded=0;shadow=0;glass=0;strokeWidth=1;" vertex="1" parent="zMS48Avbv7I0cEuDU5D0-109">
          <mxGeometry x="890" y="90" width="120" height="80" as="geometry" />
        </mxCell>
        <mxCell id="zMS48Avbv7I0cEuDU5D0-116" value="Entidades: artefatos, componentes, objetos, requisitos, etc" style="shape=partialRectangle;whiteSpace=wrap;html=1;bottom=0;right=0;fillColor=none;rounded=1;strokeWidth=1;" vertex="1" parent="zMS48Avbv7I0cEuDU5D0-109">
          <mxGeometry x="855" y="14" width="190" height="40" as="geometry" />
        </mxCell>
        <mxCell id="zMS48Avbv7I0cEuDU5D0-137" style="edgeStyle=orthogonalEdgeStyle;rounded=0;orthogonalLoop=1;jettySize=auto;html=1;exitX=0.5;exitY=1;exitDx=0;exitDy=0;exitPerimeter=0;entryX=0.5;entryY=0;entryDx=0;entryDy=0;entryPerimeter=0;" edge="1" parent="zMS48Avbv7I0cEuDU5D0-109" source="zMS48Avbv7I0cEuDU5D0-117" target="zMS48Avbv7I0cEuDU5D0-118">
          <mxGeometry relative="1" as="geometry" />
        </mxCell>
        <mxCell id="zMS48Avbv7I0cEuDU5D0-117" value="Estabelecer pontos onde o registro deve ser realizado" style="points=[[0.25,0,0],[0.5,0,0],[0.75,0,0],[1,0.25,0],[1,0.5,0],[1,0.75,0],[0.75,1,0],[0.5,1,0],[0.25,1,0],[0,0.75,0],[0,0.5,0],[0,0.25,0]];shape=mxgraph.bpmn.task;whiteSpace=wrap;rectStyle=rounded;size=10;taskMarker=abstract;rounded=0;shadow=0;glass=0;strokeWidth=1;" vertex="1" parent="zMS48Avbv7I0cEuDU5D0-109">
          <mxGeometry x="1340" y="90" width="120" height="80" as="geometry" />
        </mxCell>
        <mxCell id="zMS48Avbv7I0cEuDU5D0-138" style="edgeStyle=orthogonalEdgeStyle;rounded=0;orthogonalLoop=1;jettySize=auto;html=1;exitX=0;exitY=0.5;exitDx=0;exitDy=0;exitPerimeter=0;entryX=1;entryY=0.5;entryDx=0;entryDy=0;entryPerimeter=0;" edge="1" parent="zMS48Avbv7I0cEuDU5D0-109" source="zMS48Avbv7I0cEuDU5D0-118" target="zMS48Avbv7I0cEuDU5D0-119">
          <mxGeometry relative="1" as="geometry" />
        </mxCell>
        <mxCell id="zMS48Avbv7I0cEuDU5D0-139" style="edgeStyle=orthogonalEdgeStyle;rounded=0;orthogonalLoop=1;jettySize=auto;html=1;exitX=0.5;exitY=1;exitDx=0;exitDy=0;exitPerimeter=0;entryX=1;entryY=0.5;entryDx=0;entryDy=0;entryPerimeter=0;" edge="1" parent="zMS48Avbv7I0cEuDU5D0-109" source="zMS48Avbv7I0cEuDU5D0-118" target="zMS48Avbv7I0cEuDU5D0-131">
          <mxGeometry relative="1" as="geometry" />
        </mxCell>
        <mxCell id="zMS48Avbv7I0cEuDU5D0-118" value="" style="points=[[0.25,0.25,0],[0.5,0,0],[0.75,0.25,0],[1,0.5,0],[0.75,0.75,0],[0.5,1,0],[0.25,0.75,0],[0,0.5,0]];shape=mxgraph.bpmn.gateway2;html=1;verticalLabelPosition=bottom;labelBackgroundColor=#ffffff;verticalAlign=top;align=center;perimeter=rhombusPerimeter;outlineConnect=0;outline=none;symbol=none;gwType=parallel;rounded=1;strokeWidth=1;" vertex="1" parent="zMS48Avbv7I0cEuDU5D0-109">
          <mxGeometry x="1375" y="265" width="50" height="50" as="geometry" />
        </mxCell>
        <mxCell id="zMS48Avbv7I0cEuDU5D0-140" style="edgeStyle=orthogonalEdgeStyle;rounded=0;orthogonalLoop=1;jettySize=auto;html=1;exitX=0;exitY=0.5;exitDx=0;exitDy=0;exitPerimeter=0;entryX=1;entryY=0.5;entryDx=0;entryDy=0;entryPerimeter=0;" edge="1" parent="zMS48Avbv7I0cEuDU5D0-109" source="zMS48Avbv7I0cEuDU5D0-119" target="zMS48Avbv7I0cEuDU5D0-120">
          <mxGeometry relative="1" as="geometry" />
        </mxCell>
        <mxCell id="zMS48Avbv7I0cEuDU5D0-119" value="Acompanhar registros de relacionamentos feitos pela equipe técnica" style="points=[[0.25,0,0],[0.5,0,0],[0.75,0,0],[1,0.25,0],[1,0.5,0],[1,0.75,0],[0.75,1,0],[0.5,1,0],[0.25,1,0],[0,0.75,0],[0,0.5,0],[0,0.25,0]];shape=mxgraph.bpmn.task;whiteSpace=wrap;rectStyle=rounded;size=10;taskMarker=abstract;rounded=0;shadow=0;glass=0;strokeWidth=1;" vertex="1" parent="zMS48Avbv7I0cEuDU5D0-109">
          <mxGeometry x="1150" y="250" width="120" height="80" as="geometry" />
        </mxCell>
        <mxCell id="zMS48Avbv7I0cEuDU5D0-142" style="edgeStyle=orthogonalEdgeStyle;rounded=0;orthogonalLoop=1;jettySize=auto;html=1;exitX=0;exitY=0.5;exitDx=0;exitDy=0;exitPerimeter=0;entryX=1;entryY=0.5;entryDx=0;entryDy=0;entryPerimeter=0;" edge="1" parent="zMS48Avbv7I0cEuDU5D0-109" source="zMS48Avbv7I0cEuDU5D0-120" target="zMS48Avbv7I0cEuDU5D0-121">
          <mxGeometry relative="1" as="geometry" />
        </mxCell>
        <mxCell id="zMS48Avbv7I0cEuDU5D0-120" value="" style="points=[[0.25,0.25,0],[0.5,0,0],[0.75,0.25,0],[1,0.5,0],[0.75,0.75,0],[0.5,1,0],[0.25,0.75,0],[0,0.5,0]];shape=mxgraph.bpmn.gateway2;html=1;verticalLabelPosition=bottom;labelBackgroundColor=#ffffff;verticalAlign=top;align=center;perimeter=rhombusPerimeter;outlineConnect=0;outline=none;symbol=none;gwType=parallel;rounded=1;strokeWidth=1;" vertex="1" parent="zMS48Avbv7I0cEuDU5D0-109">
          <mxGeometry x="1000" y="265" width="50" height="50" as="geometry" />
        </mxCell>
        <mxCell id="zMS48Avbv7I0cEuDU5D0-143" style="edgeStyle=orthogonalEdgeStyle;rounded=0;orthogonalLoop=1;jettySize=auto;html=1;exitX=0;exitY=0.5;exitDx=0;exitDy=0;exitPerimeter=0;entryX=1;entryY=0.5;entryDx=0;entryDy=0;entryPerimeter=0;" edge="1" parent="zMS48Avbv7I0cEuDU5D0-109" source="zMS48Avbv7I0cEuDU5D0-121" target="zMS48Avbv7I0cEuDU5D0-122">
          <mxGeometry relative="1" as="geometry" />
        </mxCell>
        <mxCell id="zMS48Avbv7I0cEuDU5D0-121" value="Avaliar mecanismo de extração de relacionamentos em relação às expectativas" style="points=[[0.25,0,0],[0.5,0,0],[0.75,0,0],[1,0.25,0],[1,0.5,0],[1,0.75,0],[0.75,1,0],[0.5,1,0],[0.25,1,0],[0,0.75,0],[0,0.5,0],[0,0.25,0]];shape=mxgraph.bpmn.task;whiteSpace=wrap;rectStyle=rounded;size=10;taskMarker=abstract;rounded=0;shadow=0;glass=0;strokeWidth=1;" vertex="1" parent="zMS48Avbv7I0cEuDU5D0-109">
          <mxGeometry x="790" y="250" width="130" height="80" as="geometry" />
        </mxCell>
        <mxCell id="zMS48Avbv7I0cEuDU5D0-144" style="edgeStyle=orthogonalEdgeStyle;rounded=0;orthogonalLoop=1;jettySize=auto;html=1;exitX=0;exitY=0.5;exitDx=0;exitDy=0;exitPerimeter=0;entryX=1;entryY=0.5;entryDx=0;entryDy=0;entryPerimeter=0;" edge="1" parent="zMS48Avbv7I0cEuDU5D0-109" source="zMS48Avbv7I0cEuDU5D0-122" target="zMS48Avbv7I0cEuDU5D0-123">
          <mxGeometry relative="1" as="geometry" />
        </mxCell>
        <mxCell id="zMS48Avbv7I0cEuDU5D0-122" value="Analisar juntamente com a equipe técnica a efetividade do modelo de rastreabilidade adotado" style="points=[[0.25,0,0],[0.5,0,0],[0.75,0,0],[1,0.25,0],[1,0.5,0],[1,0.75,0],[0.75,1,0],[0.5,1,0],[0.25,1,0],[0,0.75,0],[0,0.5,0],[0,0.25,0]];shape=mxgraph.bpmn.task;whiteSpace=wrap;rectStyle=rounded;size=10;taskMarker=abstract;isLoopSub=1;rounded=1;labelPosition=center;verticalLabelPosition=bottom;align=center;verticalAlign=top;" vertex="1" parent="zMS48Avbv7I0cEuDU5D0-109">
          <mxGeometry x="580" y="250" width="140" height="80" as="geometry" />
        </mxCell>
        <mxCell id="zMS48Avbv7I0cEuDU5D0-146" style="edgeStyle=orthogonalEdgeStyle;rounded=0;orthogonalLoop=1;jettySize=auto;html=1;exitX=0;exitY=0.5;exitDx=0;exitDy=0;exitPerimeter=0;entryX=1;entryY=0.5;entryDx=0;entryDy=0;entryPerimeter=0;" edge="1" parent="zMS48Avbv7I0cEuDU5D0-109" source="zMS48Avbv7I0cEuDU5D0-123" target="zMS48Avbv7I0cEuDU5D0-128">
          <mxGeometry relative="1" as="geometry" />
        </mxCell>
        <mxCell id="zMS48Avbv7I0cEuDU5D0-123" value="Verificar se existem distroções a serem corrigidas" style="points=[[0.25,0,0],[0.5,0,0],[0.75,0,0],[1,0.25,0],[1,0.5,0],[1,0.75,0],[0.75,1,0],[0.5,1,0],[0.25,1,0],[0,0.75,0],[0,0.5,0],[0,0.25,0]];shape=mxgraph.bpmn.task;whiteSpace=wrap;rectStyle=rounded;size=10;taskMarker=abstract;rounded=0;shadow=0;glass=0;strokeWidth=1;" vertex="1" parent="zMS48Avbv7I0cEuDU5D0-109">
          <mxGeometry x="390" y="250" width="120" height="80" as="geometry" />
        </mxCell>
        <mxCell id="zMS48Avbv7I0cEuDU5D0-127" value="" style="line;strokeWidth=1;html=1;rounded=0;shadow=0;glass=0;" vertex="1" parent="zMS48Avbv7I0cEuDU5D0-109">
          <mxGeometry x="23" y="400" width="1567" height="10" as="geometry" />
        </mxCell>
        <mxCell id="zMS48Avbv7I0cEuDU5D0-147" value="Sim" style="edgeStyle=orthogonalEdgeStyle;rounded=0;orthogonalLoop=1;jettySize=auto;html=1;exitX=0.5;exitY=1;exitDx=0;exitDy=0;exitPerimeter=0;entryX=0.5;entryY=0;entryDx=0;entryDy=0;entryPerimeter=0;labelPosition=left;verticalLabelPosition=top;align=right;verticalAlign=bottom;" edge="1" parent="zMS48Avbv7I0cEuDU5D0-109" source="zMS48Avbv7I0cEuDU5D0-128" target="zMS48Avbv7I0cEuDU5D0-130">
          <mxGeometry relative="1" as="geometry" />
        </mxCell>
        <mxCell id="zMS48Avbv7I0cEuDU5D0-148" value="Não" style="edgeStyle=orthogonalEdgeStyle;rounded=0;orthogonalLoop=1;jettySize=auto;html=1;exitX=0;exitY=0.5;exitDx=0;exitDy=0;exitPerimeter=0;entryX=1;entryY=0.5;entryDx=0;entryDy=0;entryPerimeter=0;labelPosition=right;verticalLabelPosition=top;align=left;verticalAlign=bottom;" edge="1" parent="zMS48Avbv7I0cEuDU5D0-109" source="zMS48Avbv7I0cEuDU5D0-128" target="zMS48Avbv7I0cEuDU5D0-129">
          <mxGeometry relative="1" as="geometry" />
        </mxCell>
        <mxCell id="zMS48Avbv7I0cEuDU5D0-128" value="" style="points=[[0.25,0.25,0],[0.5,0,0],[0.75,0.25,0],[1,0.5,0],[0.75,0.75,0],[0.5,1,0],[0.25,0.75,0],[0,0.5,0]];shape=mxgraph.bpmn.gateway2;html=1;verticalLabelPosition=bottom;labelBackgroundColor=#ffffff;verticalAlign=top;align=center;perimeter=rhombusPerimeter;outlineConnect=0;outline=none;symbol=none;rounded=1;strokeWidth=1;" vertex="1" parent="zMS48Avbv7I0cEuDU5D0-109">
          <mxGeometry x="225" y="265" width="50" height="50" as="geometry" />
        </mxCell>
        <mxCell id="zMS48Avbv7I0cEuDU5D0-129" value="" style="points=[[0.145,0.145,0],[0.5,0,0],[0.855,0.145,0],[1,0.5,0],[0.855,0.855,0],[0.5,1,0],[0.145,0.855,0],[0,0.5,0]];shape=mxgraph.bpmn.event;html=1;verticalLabelPosition=bottom;labelBackgroundColor=#ffffff;verticalAlign=top;align=center;perimeter=ellipsePerimeter;outlineConnect=0;aspect=fixed;outline=end;symbol=terminate2;rounded=1;strokeWidth=1;" vertex="1" parent="zMS48Avbv7I0cEuDU5D0-109">
          <mxGeometry x="60" y="265" width="50" height="50" as="geometry" />
        </mxCell>
        <mxCell id="zMS48Avbv7I0cEuDU5D0-145" style="edgeStyle=orthogonalEdgeStyle;rounded=0;orthogonalLoop=1;jettySize=auto;html=1;exitX=1;exitY=0.5;exitDx=0;exitDy=0;exitPerimeter=0;entryX=0.5;entryY=1;entryDx=0;entryDy=0;entryPerimeter=0;" edge="1" parent="zMS48Avbv7I0cEuDU5D0-109" source="zMS48Avbv7I0cEuDU5D0-130" target="zMS48Avbv7I0cEuDU5D0-123">
          <mxGeometry relative="1" as="geometry" />
        </mxCell>
        <mxCell id="zMS48Avbv7I0cEuDU5D0-130" value="Corrigir distorções" style="points=[[0.25,0,0],[0.5,0,0],[0.75,0,0],[1,0.25,0],[1,0.5,0],[1,0.75,0],[0.75,1,0],[0.5,1,0],[0.25,1,0],[0,0.75,0],[0,0.5,0],[0,0.25,0]];shape=mxgraph.bpmn.task;whiteSpace=wrap;rectStyle=rounded;size=10;taskMarker=abstract;rounded=0;shadow=0;glass=0;strokeWidth=1;" vertex="1" parent="zMS48Avbv7I0cEuDU5D0-109">
          <mxGeometry x="190" y="460" width="120" height="80" as="geometry" />
        </mxCell>
        <mxCell id="zMS48Avbv7I0cEuDU5D0-141" style="edgeStyle=orthogonalEdgeStyle;rounded=0;orthogonalLoop=1;jettySize=auto;html=1;exitX=0.5;exitY=0;exitDx=0;exitDy=0;exitPerimeter=0;entryX=0.5;entryY=1;entryDx=0;entryDy=0;entryPerimeter=0;" edge="1" parent="zMS48Avbv7I0cEuDU5D0-109" source="zMS48Avbv7I0cEuDU5D0-131" target="zMS48Avbv7I0cEuDU5D0-120">
          <mxGeometry relative="1" as="geometry" />
        </mxCell>
        <mxCell id="zMS48Avbv7I0cEuDU5D0-131" value="Rastrear relacionamentos entre entidades" style="points=[[0.25,0,0],[0.5,0,0],[0.75,0,0],[1,0.25,0],[1,0.5,0],[1,0.75,0],[0.75,1,0],[0.5,1,0],[0.25,1,0],[0,0.75,0],[0,0.5,0],[0,0.25,0]];shape=mxgraph.bpmn.task;whiteSpace=wrap;rectStyle=rounded;size=10;taskMarker=abstract;rounded=0;shadow=0;glass=0;strokeWidth=1;" vertex="1" parent="zMS48Avbv7I0cEuDU5D0-109">
          <mxGeometry x="965" y="460" width="120" height="80" as="geometry" />
        </mxCell>
        <mxCell id="zMS48Avbv7I0cEuDU5D0-149" value="&lt;div&gt;Equipe Técnica&lt;/div&gt;" style="text;html=1;resizable=0;autosize=1;align=center;verticalAlign=middle;points=[];fillColor=none;strokeColor=none;rounded=0;shadow=0;glass=0;rotation=270;strokeWidth=1;fontStyle=1" vertex="1" parent="zMS48Avbv7I0cEuDU5D0-109">
          <mxGeometry x="-10" y="490" width="100" height="20" as="geometry" />
        </mxCell>
        <mxCell id="zMS48Avbv7I0cEuDU5D0-150" value="Gerente de Projetos" style="text;html=1;resizable=0;autosize=1;align=center;verticalAlign=middle;points=[];fillColor=none;strokeColor=none;rounded=0;shadow=0;glass=0;rotation=270;strokeWidth=1;fontStyle=1" vertex="1" parent="zMS48Avbv7I0cEuDU5D0-109">
          <mxGeometry x="-25" y="190" width="130" height="20" as="geometry" />
        </mxCell>
        <mxCell id="zMS48Avbv7I0cEuDU5D0-152" value="" style="endArrow=none;dashed=1;html=1;dashPattern=1 3;strokeWidth=2;exitX=0.5;exitY=0;exitDx=0;exitDy=0;exitPerimeter=0;entryX=0.5;entryY=1;entryDx=0;entryDy=0;" edge="1" parent="zMS48Avbv7I0cEuDU5D0-109" source="zMS48Avbv7I0cEuDU5D0-112" target="zMS48Avbv7I0cEuDU5D0-113">
          <mxGeometry width="50" height="50" relative="1" as="geometry">
            <mxPoint x="430" y="350" as="sourcePoint" />
            <mxPoint x="480" y="300" as="targetPoint" />
          </mxGeometry>
        </mxCell>
        <mxCell id="zMS48Avbv7I0cEuDU5D0-155" value="" style="endArrow=none;dashed=1;html=1;dashPattern=1 3;strokeWidth=2;entryX=0.5;entryY=1;entryDx=0;entryDy=0;exitX=0.5;exitY=0;exitDx=0;exitDy=0;exitPerimeter=0;" edge="1" parent="zMS48Avbv7I0cEuDU5D0-109" source="zMS48Avbv7I0cEuDU5D0-115" target="zMS48Avbv7I0cEuDU5D0-116">
          <mxGeometry width="50" height="50" relative="1" as="geometry">
            <mxPoint x="910" y="380" as="sourcePoint" />
            <mxPoint x="960" y="330" as="targetPoint" />
          </mxGeometry>
        </mxCell>
        <mxCell id="zMS48Avbv7I0cEuDU5D0-156" value="GRE 3" style="text;html=1;align=center;verticalAlign=middle;resizable=0;points=[];autosize=1;strokeColor=none;" vertex="1" parent="1">
          <mxGeometry x="802" y="2300" width="50" height="20" as="geometry" />
        </mxCell>
        <mxCell id="zMS48Avbv7I0cEuDU5D0-157" value="Processo 1" style="swimlane;horizontal=0;rounded=1;swimlaneLine=1;" vertex="1" parent="1">
          <mxGeometry x="10" y="2380" width="1590" height="420" as="geometry" />
        </mxCell>
        <mxCell id="zMS48Avbv7I0cEuDU5D0-158" value="&lt;div&gt;Equipe Técnica&lt;/div&gt;" style="text;html=1;resizable=0;autosize=1;align=center;verticalAlign=middle;points=[];fillColor=none;strokeColor=none;rounded=0;shadow=0;glass=0;rotation=270;strokeWidth=1;fontStyle=1" vertex="1" parent="zMS48Avbv7I0cEuDU5D0-157">
          <mxGeometry x="-10" y="200" width="100" height="20" as="geometry" />
        </mxCell>
        <mxCell id="zMS48Avbv7I0cEuDU5D0-170" style="edgeStyle=orthogonalEdgeStyle;rounded=0;orthogonalLoop=1;jettySize=auto;html=1;exitX=1;exitY=0.5;exitDx=0;exitDy=0;exitPerimeter=0;entryX=0;entryY=0.5;entryDx=0;entryDy=0;entryPerimeter=0;" edge="1" parent="zMS48Avbv7I0cEuDU5D0-157" source="zMS48Avbv7I0cEuDU5D0-159" target="zMS48Avbv7I0cEuDU5D0-160">
          <mxGeometry relative="1" as="geometry" />
        </mxCell>
        <mxCell id="zMS48Avbv7I0cEuDU5D0-159" value="" style="points=[[0.145,0.145,0],[0.5,0,0],[0.855,0.145,0],[1,0.5,0],[0.855,0.855,0],[0.5,1,0],[0.145,0.855,0],[0,0.5,0]];shape=mxgraph.bpmn.event;html=1;verticalLabelPosition=bottom;labelBackgroundColor=#ffffff;verticalAlign=top;align=center;perimeter=ellipsePerimeter;outlineConnect=0;aspect=fixed;outline=standard;symbol=general;rounded=1;strokeWidth=1;" vertex="1" parent="zMS48Avbv7I0cEuDU5D0-157">
          <mxGeometry x="60" y="185" width="50" height="50" as="geometry" />
        </mxCell>
        <mxCell id="zMS48Avbv7I0cEuDU5D0-171" style="edgeStyle=orthogonalEdgeStyle;rounded=0;orthogonalLoop=1;jettySize=auto;html=1;exitX=1;exitY=0.5;exitDx=0;exitDy=0;exitPerimeter=0;entryX=0;entryY=0.5;entryDx=0;entryDy=0;entryPerimeter=0;" edge="1" parent="zMS48Avbv7I0cEuDU5D0-157" source="zMS48Avbv7I0cEuDU5D0-160" target="zMS48Avbv7I0cEuDU5D0-161">
          <mxGeometry relative="1" as="geometry" />
        </mxCell>
        <mxCell id="zMS48Avbv7I0cEuDU5D0-173" value="Não" style="edgeStyle=orthogonalEdgeStyle;rounded=0;orthogonalLoop=1;jettySize=auto;html=1;exitX=0.5;exitY=1;exitDx=0;exitDy=0;exitPerimeter=0;entryX=0;entryY=0.5;entryDx=0;entryDy=0;entryPerimeter=0;labelPosition=right;verticalLabelPosition=middle;align=left;verticalAlign=middle;" edge="1" parent="zMS48Avbv7I0cEuDU5D0-157" source="zMS48Avbv7I0cEuDU5D0-161" target="zMS48Avbv7I0cEuDU5D0-166">
          <mxGeometry x="-0.9412" relative="1" as="geometry">
            <mxPoint as="offset" />
          </mxGeometry>
        </mxCell>
        <mxCell id="zMS48Avbv7I0cEuDU5D0-160" value="Verificar se existem inconsistências em relação ao produto" style="points=[[0.25,0,0],[0.5,0,0],[0.75,0,0],[1,0.25,0],[1,0.5,0],[1,0.75,0],[0.75,1,0],[0.5,1,0],[0.25,1,0],[0,0.75,0],[0,0.5,0],[0,0.25,0]];shape=mxgraph.bpmn.task;whiteSpace=wrap;rectStyle=rounded;size=10;taskMarker=abstract;rounded=0;shadow=0;glass=0;strokeWidth=1;" vertex="1" parent="zMS48Avbv7I0cEuDU5D0-157">
          <mxGeometry x="170" y="170" width="120" height="80" as="geometry" />
        </mxCell>
        <mxCell id="zMS48Avbv7I0cEuDU5D0-172" value="Sim" style="edgeStyle=orthogonalEdgeStyle;rounded=0;orthogonalLoop=1;jettySize=auto;html=1;exitX=1;exitY=0.5;exitDx=0;exitDy=0;exitPerimeter=0;entryX=0;entryY=0.5;entryDx=0;entryDy=0;entryPerimeter=0;labelPosition=center;verticalLabelPosition=bottom;align=center;verticalAlign=top;" edge="1" parent="zMS48Avbv7I0cEuDU5D0-157" source="zMS48Avbv7I0cEuDU5D0-161" target="zMS48Avbv7I0cEuDU5D0-162">
          <mxGeometry relative="1" as="geometry" />
        </mxCell>
        <mxCell id="zMS48Avbv7I0cEuDU5D0-161" value="" style="points=[[0.25,0.25,0],[0.5,0,0],[0.75,0.25,0],[1,0.5,0],[0.75,0.75,0],[0.5,1,0],[0.25,0.75,0],[0,0.5,0]];shape=mxgraph.bpmn.gateway2;html=1;verticalLabelPosition=bottom;labelBackgroundColor=#ffffff;verticalAlign=top;align=center;perimeter=rhombusPerimeter;outlineConnect=0;outline=none;symbol=none;rounded=1;strokeWidth=1;" vertex="1" parent="zMS48Avbv7I0cEuDU5D0-157">
          <mxGeometry x="350" y="185" width="50" height="50" as="geometry" />
        </mxCell>
        <mxCell id="zMS48Avbv7I0cEuDU5D0-174" style="edgeStyle=orthogonalEdgeStyle;rounded=0;orthogonalLoop=1;jettySize=auto;html=1;exitX=1;exitY=0.5;exitDx=0;exitDy=0;exitPerimeter=0;entryX=0;entryY=0.5;entryDx=0;entryDy=0;entryPerimeter=0;" edge="1" parent="zMS48Avbv7I0cEuDU5D0-157" source="zMS48Avbv7I0cEuDU5D0-162" target="zMS48Avbv7I0cEuDU5D0-163">
          <mxGeometry relative="1" as="geometry" />
        </mxCell>
        <mxCell id="zMS48Avbv7I0cEuDU5D0-162" value="Registrar inconsistências de requisitos" style="points=[[0.25,0,0],[0.5,0,0],[0.75,0,0],[1,0.25,0],[1,0.5,0],[1,0.75,0],[0.75,1,0],[0.5,1,0],[0.25,1,0],[0,0.75,0],[0,0.5,0],[0,0.25,0]];shape=mxgraph.bpmn.task;whiteSpace=wrap;rectStyle=rounded;size=10;taskMarker=abstract;rounded=0;shadow=0;glass=0;strokeWidth=1;" vertex="1" parent="zMS48Avbv7I0cEuDU5D0-157">
          <mxGeometry x="460" y="170" width="120" height="80" as="geometry" />
        </mxCell>
        <mxCell id="zMS48Avbv7I0cEuDU5D0-175" value="" style="edgeStyle=orthogonalEdgeStyle;rounded=0;orthogonalLoop=1;jettySize=auto;html=1;" edge="1" parent="zMS48Avbv7I0cEuDU5D0-157" source="zMS48Avbv7I0cEuDU5D0-163" target="zMS48Avbv7I0cEuDU5D0-164">
          <mxGeometry relative="1" as="geometry" />
        </mxCell>
        <mxCell id="zMS48Avbv7I0cEuDU5D0-163" value="Realizar reunião com fornecedor de requisitos" style="points=[[0.25,0,0],[0.5,0,0],[0.75,0,0],[1,0.25,0],[1,0.5,0],[1,0.75,0],[0.75,1,0],[0.5,1,0],[0.25,1,0],[0,0.75,0],[0,0.5,0],[0,0.25,0]];shape=mxgraph.bpmn.task;whiteSpace=wrap;rectStyle=rounded;size=10;taskMarker=abstract;rounded=0;shadow=0;glass=0;strokeWidth=1;" vertex="1" parent="zMS48Avbv7I0cEuDU5D0-157">
          <mxGeometry x="660" y="170" width="120" height="80" as="geometry" />
        </mxCell>
        <mxCell id="zMS48Avbv7I0cEuDU5D0-176" value="" style="edgeStyle=orthogonalEdgeStyle;rounded=0;orthogonalLoop=1;jettySize=auto;html=1;" edge="1" parent="zMS48Avbv7I0cEuDU5D0-157" source="zMS48Avbv7I0cEuDU5D0-164" target="zMS48Avbv7I0cEuDU5D0-165">
          <mxGeometry relative="1" as="geometry" />
        </mxCell>
        <mxCell id="zMS48Avbv7I0cEuDU5D0-164" value="Informar e avaliar as inconsistências" style="points=[[0.25,0,0],[0.5,0,0],[0.75,0,0],[1,0.25,0],[1,0.5,0],[1,0.75,0],[0.75,1,0],[0.5,1,0],[0.25,1,0],[0,0.75,0],[0,0.5,0],[0,0.25,0]];shape=mxgraph.bpmn.task;whiteSpace=wrap;rectStyle=rounded;size=10;taskMarker=abstract;isLoopSub=1;rounded=1;labelPosition=center;verticalLabelPosition=bottom;align=center;verticalAlign=top;" vertex="1" parent="zMS48Avbv7I0cEuDU5D0-157">
          <mxGeometry x="860" y="170" width="140" height="80" as="geometry" />
        </mxCell>
        <mxCell id="zMS48Avbv7I0cEuDU5D0-177" value="" style="edgeStyle=orthogonalEdgeStyle;rounded=0;orthogonalLoop=1;jettySize=auto;html=1;" edge="1" parent="zMS48Avbv7I0cEuDU5D0-157" source="zMS48Avbv7I0cEuDU5D0-165" target="zMS48Avbv7I0cEuDU5D0-166">
          <mxGeometry relative="1" as="geometry" />
        </mxCell>
        <mxCell id="zMS48Avbv7I0cEuDU5D0-165" value="Corrigir inconsistências dos requisitos" style="points=[[0.25,0,0],[0.5,0,0],[0.75,0,0],[1,0.25,0],[1,0.5,0],[1,0.75,0],[0.75,1,0],[0.5,1,0],[0.25,1,0],[0,0.75,0],[0,0.5,0],[0,0.25,0]];shape=mxgraph.bpmn.task;whiteSpace=wrap;rectStyle=rounded;size=10;taskMarker=abstract;rounded=0;shadow=0;glass=0;strokeWidth=1;" vertex="1" parent="zMS48Avbv7I0cEuDU5D0-157">
          <mxGeometry x="1100" y="170" width="120" height="80" as="geometry" />
        </mxCell>
        <mxCell id="zMS48Avbv7I0cEuDU5D0-166" value="" style="points=[[0.145,0.145,0],[0.5,0,0],[0.855,0.145,0],[1,0.5,0],[0.855,0.855,0],[0.5,1,0],[0.145,0.855,0],[0,0.5,0]];shape=mxgraph.bpmn.event;html=1;verticalLabelPosition=bottom;labelBackgroundColor=#ffffff;verticalAlign=top;align=center;perimeter=ellipsePerimeter;outlineConnect=0;aspect=fixed;outline=end;symbol=terminate2;rounded=1;strokeWidth=1;" vertex="1" parent="zMS48Avbv7I0cEuDU5D0-157">
          <mxGeometry x="1135" y="340" width="50" height="50" as="geometry" />
        </mxCell>
        <mxCell id="zMS48Avbv7I0cEuDU5D0-167" value="Documento de inconsistências" style="shape=mxgraph.bpmn.data;labelPosition=center;verticalLabelPosition=middle;align=center;verticalAlign=middle;whiteSpace=wrap;size=15;html=1;bpmnTransferType=output;rounded=0;shadow=0;glass=0;strokeWidth=1;" vertex="1" parent="zMS48Avbv7I0cEuDU5D0-157">
          <mxGeometry x="470" y="40" width="100" height="70" as="geometry" />
        </mxCell>
        <mxCell id="zMS48Avbv7I0cEuDU5D0-168" value="Ata de reunião" style="shape=mxgraph.bpmn.data;labelPosition=center;verticalLabelPosition=middle;align=center;verticalAlign=middle;whiteSpace=wrap;size=15;html=1;bpmnTransferType=output;rounded=0;shadow=0;glass=0;strokeWidth=1;" vertex="1" parent="zMS48Avbv7I0cEuDU5D0-157">
          <mxGeometry x="880" y="40" width="100" height="70" as="geometry" />
        </mxCell>
        <mxCell id="zMS48Avbv7I0cEuDU5D0-169" value="Registro de ações corretivas para sanar inconsistências" style="shape=mxgraph.bpmn.data;labelPosition=center;verticalLabelPosition=middle;align=center;verticalAlign=middle;whiteSpace=wrap;size=15;html=1;bpmnTransferType=output;rounded=0;shadow=0;glass=0;strokeWidth=1;" vertex="1" parent="zMS48Avbv7I0cEuDU5D0-157">
          <mxGeometry x="1090" y="40" width="140" height="70" as="geometry" />
        </mxCell>
        <mxCell id="zMS48Avbv7I0cEuDU5D0-178" value="" style="edgeStyle=elbowEdgeStyle;fontSize=12;html=1;endFill=0;startFill=0;endSize=6;startSize=6;dashed=1;dashPattern=1 4;endArrow=openThin;startArrow=none;exitX=0.5;exitY=0;exitDx=0;exitDy=0;exitPerimeter=0;entryX=0.5;entryY=1;entryDx=0;entryDy=0;entryPerimeter=0;" edge="1" parent="zMS48Avbv7I0cEuDU5D0-157" source="zMS48Avbv7I0cEuDU5D0-162" target="zMS48Avbv7I0cEuDU5D0-167">
          <mxGeometry width="160" relative="1" as="geometry">
            <mxPoint x="670" y="50" as="sourcePoint" />
            <mxPoint x="830" y="50" as="targetPoint" />
          </mxGeometry>
        </mxCell>
        <mxCell id="zMS48Avbv7I0cEuDU5D0-179" value="" style="edgeStyle=elbowEdgeStyle;fontSize=12;html=1;endFill=0;startFill=0;endSize=6;startSize=6;dashed=1;dashPattern=1 4;endArrow=openThin;startArrow=none;entryX=0.5;entryY=1;entryDx=0;entryDy=0;entryPerimeter=0;exitX=0.5;exitY=0;exitDx=0;exitDy=0;exitPerimeter=0;" edge="1" parent="zMS48Avbv7I0cEuDU5D0-157" source="zMS48Avbv7I0cEuDU5D0-164" target="zMS48Avbv7I0cEuDU5D0-168">
          <mxGeometry width="160" relative="1" as="geometry">
            <mxPoint x="670" y="50" as="sourcePoint" />
            <mxPoint x="830" y="50" as="targetPoint" />
          </mxGeometry>
        </mxCell>
        <mxCell id="zMS48Avbv7I0cEuDU5D0-180" value="" style="edgeStyle=elbowEdgeStyle;fontSize=12;html=1;endFill=0;startFill=0;endSize=6;startSize=6;dashed=1;dashPattern=1 4;endArrow=openThin;startArrow=none;entryX=0.5;entryY=1;entryDx=0;entryDy=0;entryPerimeter=0;exitX=0.5;exitY=0;exitDx=0;exitDy=0;exitPerimeter=0;" edge="1" parent="zMS48Avbv7I0cEuDU5D0-157" source="zMS48Avbv7I0cEuDU5D0-165" target="zMS48Avbv7I0cEuDU5D0-169">
          <mxGeometry width="160" relative="1" as="geometry">
            <mxPoint x="670" y="50" as="sourcePoint" />
            <mxPoint x="830" y="50" as="targetPoint" />
          </mxGeometry>
        </mxCell>
        <mxCell id="zMS48Avbv7I0cEuDU5D0-181" value="GRE 4" style="text;html=1;align=center;verticalAlign=middle;resizable=0;points=[];autosize=1;strokeColor=none;" vertex="1" parent="1">
          <mxGeometry x="802" y="2810" width="50" height="20" as="geometry" />
        </mxCell>
      </root>
    </mxGraphModel>
  </diagram>
</mxfile>
